<?xml version="1.0" encoding="UTF-8"?><svg id="Layer_1" xmlns="http://www.w3.org/2000/svg" viewBox="0 0 180 42"><defs><style>.cls-1,.cls-2{fill:#a26b60;}.cls-3{fill:#e6d6c3;}.cls-2{fill-rule:evenodd;}.cls-4{fill:#6b5745;}.cls-5{fill:#aa9a88;}</style></defs><g><path class="cls-3" d="M38.7,19.71c0,9.34-7.57,16.9-16.9,16.9S4.89,29.05,4.89,19.71,12.46,2.81,21.79,2.81s16.9,7.57,16.9,16.9Z"/><g><path class="cls-2" d="M21.5,6.39c-.05-.08-.18-.06-.21,.02-.22,.58-.25-.08-.26-.14-.02-.17-.04-.33-.07-.5-.04-.25-.19-.5-.36-.68-.05-.05-.14-.03-.18,.02-.07,.08-.08,.19-.16,.27,.09-.09-.03-.31-.1-.41-.23-.34-.57-.43-.92-.6-.09-.05-.21,.04-.16,.14,.06,.1,.66,.93,.36,.92-.11,0-.18,.08-.18,.19,0,.38-.09,.72-.09,1.1,0,.34,.24,.5-.14,.61-.06,.02-.09,.07-.08,.13,.08,.38,.38,1.07,.65,1.35,.55,.55,1.12,.64,1.86,.62,.03,0,.06-.01,.08-.03,.52-.07,.5-.61,.51-1.03,0-.67-.21-1.42-.57-1.98Zm.29,2.66s-.05-.02-.08-.01c-.63,.11-1.03-.63-1.22-1.09-.08-.18-.17-.35-.24-.53-.09-.25-.04-.57-.04-.83,0-.13-.22-.13-.23,0,0,.36-.03,.68,.1,1.02,.11,.3,.27,.59,.41,.88,.17,.36,.57,.68,.99,.75-.94,.02-1.59-.24-1.99-1.13-.09-.19-.15-.39-.24-.59-.01-.03-.2-.02,.11-.04,.04,0,.08-.02,.12-.04,.04-.02,.05-.05,.06-.09,.01-.11,.01-.09-.03-.2-.11-.26-.11-.65-.07-.93,.03-.19,.02-.55,.2-.61,.05-.02,.08-.05,.08-.1,.04-.37-.08-.57-.24-.81,.22,.1,.42,.21,.53,.45,.07,.16,.08,.35,.22,.44,.04,.03,.1,.01,.14-.02,.1-.07,.13-.15,.17-.22,.32,.46,.12,1.02,.37,1.48,.02,.03,.06,.05,.1,.05,.19,0,.31-.08,.4-.2,.26,.56,.69,1.91,.39,2.37Z"/><path class="cls-2" d="M34.72,4.23c.08-.44,.03-.64-.4-.82-.16-.07-.37-.04-.54-.01-.6,.08-.06-.32,.1-.58,.16-.26,.01-.78-.26-.92-.44-.23-.98,.15-1.41,.23-.01,0-.03,0-.05,0-.17,.05-.62-.65-.78-.77-.19-.15-.47-.11-.69-.11-.26,0-.7,.29-.57-.18,.04-.16-.06-.29-.16-.4-.32-.37-1.15-.24-1.54-.12-.46,.14-.85,.68-1.13,1.13-.05,0-.09,.02-.11,.07-.01,.06-.03,.13-.05,.2,0,.01-.01,.02-.02,.03-.01,.02-.02,.05-.01,.07-.18,.55-.44,1.16,0,1.64,.21,.23,.57,.27,.85,.21,.27-.05,.53-.31,.77-.02,.08,.1,.03,.28,.14,.37,.05,.04,.13,.08,.19,.08,.43,.03,.85-.02,1.04,.48,.13,.35,.13,.68,.35,1,.13,.19,.32,.24,.53,.2,.53-.11,.54-1.13,1.31-.67,.14,.36,.26,.64,.67,.76,.16,.05,.33-.03,.46-.11,.39-.24,.62-.08,.98,.03,.36,.11,.57-.23,.7-.5,.27-.58-.48-.75-.38-1.27Zm-.16,1.57c-.3,0-.58-.26-.89-.2-.11,.02-.22,.04-.3,.12-.51,.46-.78-.24-.89-.52-.02-.05-.07-.07-.12-.07-.24-.12-.5-.12-.76-.03-.25,.09-.72,.94-1.03,.49-.38-.55-.12-1.19-.87-1.46-.15-.05-.37-.01-.52,0-.1,0-.21-.28-.25-.36-.11-.23-.32-.24-.54-.23-.57,.04-1.31,.4-1.27-.61,.01-.33,.14-.61,.24-.91,.03-.05,.06-.1,.09-.15,1.3-.01,2.55,.72,3.64,1.38,.44,.27,.87,.54,1.32,.79,.29,.16,.55,.26,.75,.53,.12,.16,.23,.31,.36,.47,.09,.1,.25-.04,.16-.14-.34-.4-.52-.73-1.01-.95-.57-.25-1.09-.64-1.63-.97-1.04-.63-2.22-1.28-3.46-1.31,.38-.57,.85-1.02,1.62-1.02,.24,0,.43,0,.63,.15,.24,.17,.01,.33,.01,.49,0,.13,.04,.18,.15,.22,.55,.23,1.21-.48,1.59,.38,.13,.29,.31,.52,.66,.43,0,0,0,0,0,0,0,0,.02,0,.03,0,.34-.06,1.11-.53,1.37-.08,.29,.5-.33,.75-.4,1.15-.02,.1,.02,.22,.11,.26,.37,.19,.79-.34,1.17,.12,.13,.16-.06,.65,.02,.89,.03,.08,.1,.15,.17,.19,.26,.17,.33,.94-.13,.94Z"/><path class="cls-2" d="M28.71,5.56c-.26-.29-.62-.6-.99-.74-.38-.15-.74-.11-1.14-.16-.14-.02-.21,.18-.06,.2,.06,0,.11,.01,.16,.02,0,0,0,0,.01,.01,.3,.25,.19,1.07,.26,1.45,.06,.29,.23,.83,.47,1.03,.46,.39,1.15,.58,1.6,.06,.47-.54,.1-1.43-.32-1.88Zm.08,1.82c-.06,.07-.13,.11-.2,.14,.06-.26,.04-.59-.08-.81-.11-.2-.21-.41-.33-.61-.11-.19-.31-.3-.4-.51-.05-.12-.27-.07-.22,.05,.11,.28,.37,.47,.52,.73,.21,.35,.39,.75,.27,1.17,0,0,0,.01,0,.02-.32-.01-.67-.22-.84-.43-.23-.29-.33-.81-.38-1.16-.04-.31,.02-.77-.14-1.07,.38,.04,.73,.1,1.09,.38,.57,.45,1.35,1.37,.72,2.1Z"/><path class="cls-2" d="M25.48,4.11c-.03-.31,.18-.37,.18-.65,0-.25-.26-.19-.03-.49,.1-.13,.14-.2,.11-.36-.02-.14-.48-.55-.34-.68,.29-.28,.02-.48-.23-.65-.23-.16-.1-.35-.21-.52-.02-.03-.06-.04-.09-.06-.27-.12-.2-.38-.23-.59-.02-.13-.24-.13-.23,0,0,0,0,.01,0,.02-.06,.23-.14,.44-.41,.49-.05,0-.17,.03-.2,.08-.08,.16-.12,.49-.34,.5-.12,0-.27-.02-.38,.04-.27,.14,.02,.56-.29,.63-.25,.06-.15,.24-.21,.43,0,.02,0,.03,0,.04,0,0,0,0,0,0,0,.13-.28,.12-.28,.3,.01,.4,.17,.85-.25,1.05-.13,.06-.06,.27-.03,.36,.09,.3-.33,.22-.28,.45,.05,.26,.28,.44,.46,.62,.15,.14,.29,.27,.43,.42,0,0-.01,0-.02,0-.48,.1,.09,.86,.34,1.3,.09,.2,.16,.39,.22,.61,.03,.1,.03,.24,.09,.33,.06,.09,.23,.08,.32,.11,.2,.07,.3-.2,.33-.34,.07-.24,.27-.41,.38-.62,.1-.14,.21-.27,.36-.39,.13-.1,.44-.36,.32-.57-.04-.08-.17-.15-.18-.23,0-.1,.41-.3,.47-.34,.33-.22,.58-.36,.82-.67,.36-.45-.27-.58-.62-.63Zm-1.63,.79s0-.02,0-.02c.04,0,.09,0,.12-.05,.02-.03,.04-.06,.06-.09-.05,.17-.09,.33-.1,.52,0,.03,.01,.06,.04,.08-.02,.05-.05,.1-.07,.15,0,0,0,.02,0,.02,.01-.21,0-.42-.03-.61Zm1.48,.23c-.17,.1-.72,.31-.75,.56,0,.07-.02,.15,.03,.2,.26,.3-.17,.54-.36,.71-.14,.12-.24,.27-.32,.44,0,.02-.02,.03-.03,.05,0,0,0,0,.01,0-.03,.04-.06,.07-.08,.1-.04,.06-.08,.11-.11,.18,0,0,0,.01,0,.03,.02-.52,.09-1,.25-1.51,.19-.63,.53-1.09,.96-1.57,.1-.11-.06-.22-.16-.14-.2,.14-.37,.32-.51,.51,.05-.16,.11-.32,.18-.48,.1-.25,.14-.51,.25-.75,.04-.06,.08-.13,.12-.2,.06-.13-.12-.21-.2-.1-.05,.07-.09,.14-.13,.22-.11,.16-.23,.32-.33,.48,0-.02,0-.04,.01-.06,.02-.06,.03-.12,.05-.18,.08-.36,.16-.7,.33-1.03,.06-.09,.11-.18,.16-.27,.07-.12-.12-.21-.2-.1-.07,.1-.12,.2-.18,.3-.01,.02-.03,.04-.04,.06,.04-.37,.08-.74,.09-1.11,0-.13-.22-.13-.23,0,0,.03,0,.07,0,.1-.03,.48-.25,1.03-.13,1.48,0,0,0,0,0,.01,0,.16-.01,.34-.03,.51,0,0,0,0,0,0-.02-.06-.04-.12-.06-.19,0-.02,0-.04,0-.05-.05-.22-.08-.41-.21-.59-.06-.09-.24-.04-.21,.08,.05,.16,.1,.31,.15,.46,.04,.26,.04,.54,.17,.74,0,.03,0,.07,0,.1-.02,.08-.04,.15-.05,.23-.13-.19-.23-.4-.45-.54-.09-.06-.2,.05-.16,.14,.14,.28,.34,.5,.43,.81,.11,.4,.05,.91-.05,1.29-.06,.24-.05,.51-.07,.76-.02,.18,.07,.66-.03,.8,0-.02-.01-.04-.02-.07-.03-.11-.06-.22-.09-.33-.03-.11-.07-.21-.11-.31,.01,0,.02,0,.04,0-.04-.14-.13-.26-.22-.41-.09-.14-.56-.79-.25-.79,.04,0,.1-.03,.11-.07,.05-.26-.38-.52-.54-.68-.09-.08-.17-.16-.25-.25-.3-.32-.06-.21,.04-.31,.09-.09,.16-.15,.12-.3-.07-.29,.08-.24,.2-.4,.12-.16,.09-.32,.08-.52-.02-.21-.07-.5,.11-.63,.08-.06,.15-.12,.15-.22,0,0,0,0,0,0,.03-.12-.01-.26,.13-.29,.11-.02,.13-.05,.19-.14,.06-.09,.06-.23,.06-.33,0-.24,.32-.14,.5-.2,.28-.11,.15-.51,.47-.56,.14-.02,.24-.08,.3-.17,0,0,0,.02,.01,.03,.15,.22,.31,.16,.3,.49,0,.11,.09,.19,.18,.24,.38,.23,.17,.37,.19,.68,0,.18,.21,.36,.32,.48,.13,.15-.15,.46-.15,.64s.17,.24,.05,.47c-.11,.19-.12,.35-.08,.57,0,.02,0,.03,.02,.05,0,0,0,0,0,0,0,0,0,.01,.02,.01,.02,.01,.04,.02,.06,.02,.19,.02,.35,.06,.53,.13,.28,.1-.48,.65-.57,.7Z"/><path class="cls-2" d="M36.66,8.76c-.43-.14-.85-.12-1.25-.34-.39-.21-.74-.48-1.05-.8-.52-.54-1.34-.76-2.07-.71-.67,.05-1.16,.39-1.58,.88-.26,.31-.42,.72-.58,1.08-.1,.22-.17,.45-.23,.69-.04,.14-.02,.27-.03,.41-.34-.37-.79-.62-1.31-.78-.53-.16-1.07-.33-1.62-.45-.37-.08-1.39-.41-1.49-.81-.03-.13-.24-.08-.22,.05,0,.05,.02,.11,.03,.16-.02,1.17,.55,2.11,1.48,2.82,1.25,.96,2.53,2.11,2.38,3.83,0,.02,0,.04,0,.06,0,.03,.03,.05,.05,.06,.42,.19,.88-.66,1-.93,.08-.17,.14-.35,.2-.53,.05,0,.1-.04,.11-.1,.11-1.42,.91-2.8,1.99-3.69,.54-.44,1.22-.72,1.9-.87,.78-.17,1.5,.21,2.26,.17,.12,0,.15-.16,.03-.2Zm-6.49,.67c.11-.42,.32-.85,.54-1.23,.53-.91,1.58-1.36,2.6-.96,.63,.25,1,.76,1.56,1.1,.06,.03,.12,.07,.17,.11-.91-.26-1.86-.64-2.78-.28-.91,.36-1.79,1.41-1.99,2.42-.06-.14-.14-.28-.22-.4,.08-.25,.05-.51,.11-.77Zm-.97,4.04c-.2-.6-.62-1.12-1.03-1.59-.49-.56-1.13-.91-1.68-1.4-.54-.49-.86-1.09-.97-1.77,.54,.8,1.65,1.35,2.3,1.92,.63,.55,1.12,1.3,1.32,2.11,.06,.23,.06,.48,.06,.73Zm.75,.46c-.06,.16-.2,.44-.36,.56,0,0-.08,.06-.14,.1,.04-.3-.03-.72-.03-.92,0-.83-.15-1.49-.58-2.22-.4-.68-1.12-1.21-1.75-1.66-.49-.36-1.14-.79-1.46-1.35,.25,.14,.56,.23,.78,.32,.6,.26,1.27,.38,1.9,.57,.95,.29,1.55,.74,1.89,1.7,.32,.92,.1,2.02-.25,2.9Zm4.36-5.33c-.66,.1-1.32,.43-1.86,.81-.84,.6-1.5,1.52-1.88,2.53-.01-.31-.06-.61-.13-.9,.02-.02,.03-.04,.03-.07,.02-1.09,1.05-2.35,2.08-2.67,.73-.22,1.47,.02,2.2,.25-.14,0-.29,.02-.43,.04Z"/><path class="cls-2" d="M28.51,2.11c-.12-.07-.24,.1-.11,.18,.07,.04,.09,.09,.11,.16,.03,.11,.06,.23,.06,.34,0,.13,.23,.13,.23,0,0-.24-.05-.55-.28-.68Z"/><path class="cls-2" d="M29.85,2.92c-.05-.14-.16-.25-.23-.38-.06-.11-.26-.02-.2,.1,.06,.11,.16,.21,.21,.33,.05,.12,.09,.24,.09,.38,0,.13,.23,.13,.23,0,0-.15-.04-.29-.1-.43Z"/><path class="cls-2" d="M30.73,3.53c-.07-.11-.28-.01-.2,.1,.24,.34,.24,.8,.24,1.19,0,.13,.23,.13,.23,0,0-.43,0-.93-.27-1.3Z"/><path class="cls-2" d="M32.04,4.15c-.05-.12-.27-.07-.22,.05,.05,.12,.03,.25,.02,.37,0,.13,.22,.13,.23,0,0-.14,.03-.29-.03-.42Z"/><path class="cls-2" d="M28.98,1.18c-.05,.06-.11,.11-.17,.16-.07,.06-.09,.07-.18,.05-.14-.03-.2,.16-.06,.2,.12,.03,.22,.03,.32-.04,.11-.07,.21-.16,.29-.26,.08-.11-.12-.21-.2-.1Z"/><path class="cls-2" d="M30.94,2.1c-.05,.02-.11,0-.17,0-.08,0-.15,0-.22-.02-.13-.04-.2,.16-.06,.2,.09,.03,.19,.03,.29,.03,.08,0,.15,.02,.23,0,.14-.05,.07-.24-.06-.2Z"/><path class="cls-2" d="M32.81,2.87c-.12,.07-.26,.05-.4,.04-.17,0-.34,0-.51,0-.14,0-.14,.2,0,.2,.2,0,.41,0,.61,0,.14,0,.28,0,.41-.07,.13-.08,0-.25-.11-.18Z"/><path class="cls-2" d="M19.16,.81c-.03-.07-.12-.1-.19-.05-.27,.23-.46,.49-.77,.69-.4,.26-.82,.5-1.25,.72-.67,.34-1.58,.72-1.93,1.44-.02,.03-.01,.06,0,.09,0,0,0,.01,0,.02-.02,.05,.02,.12,.08,.13,.43,.06,.81,.35,1.27,.39,.78,.05,1.33-.09,1.96-.54,.46-.32,.85-.66,1.03-1.21,.16-.48,.03-1.22-.18-1.68Zm-.32,2.15c-.58,.82-1.7,1.22-2.66,1.04-.32-.06-.58-.26-.87-.34,.01,0,.02,0,.04-.02,.21-.12,.42-.16,.66-.21,.65-.13,1.31-.44,1.77-.91,.1-.1-.07-.24-.16-.14-.49,.5-1.18,.76-1.85,.9-.09,.02-.2,.04-.3,.08,.49-.55,1.34-.86,1.95-1.18,.42-.23,.83-.49,1.23-.75,.17-.11,.25-.26,.37-.39,.22,.62,.21,1.4-.17,1.93Z"/><path class="cls-2" d="M11.45,8c-.21-.31-.47-.53-.81-.68-.35-.16-.83-.31-1.21-.33-.58-.03-1.23,.1-1.78-.13-.08-.03-.24,.04-.15,.14,.06,.11,.1,.22,.1,.34,0,.02,.01,.04,.03,.05,.15,.62,.41,1.1,1.09,1.36,.43,.16,.96,.09,1.41,.09,.41,0,.75-.22,1.07-.45,.08-.06,.38-.22,.27-.38Zm-2.22,.63c-.47,0-.85-.22-1.14-.59-.22-.29-.24-.59-.31-.92,.36,.09,.72,.07,1.1,.06,.69-.02,1.58,.14,2.11,.61,.11,.1,.15,.18,.15,.25,0,0-.02,0-.02,0-.2,.08-.5,.05-.71,.1-.32,.08-.84,.14-1.1-.12-.1-.09-.27,.04-.16,.14,.24,.23,.56,.23,.87,.23,.27,0,.51-.1,.77-.12,.07,0,.13,0,.2-.01-.11,.08-.26,.15-.37,.23-.34,.22-.99,.13-1.39,.13Z"/><path class="cls-2" d="M17.1,9.75c.22-.53,.35-1.03,.23-1.6-.02-.07-.11-.09-.17-.06-.08,.04-.21,.11-.21,.22-.01-.3-.09-.59-.19-.88-.19-.52-.61-.97-1.05-1.29-.43-.31-.83-.48-1.35-.6-.3-.07-.6-.11-.9-.18-.39-.09-.66-.34-1-.53,0-.11-.21-.1-.22,.02-.07,.54-.08,1,.08,1.54,0,.02,.26,.71,.11,.7-.08,0-.19,.01-.23,.08-.15,.23,.3,.77,.43,.91,.2,.22,.4,.42,.64,.61,.39,.32,.54,.65,.06,.9-.03,.02-.06,.05-.06,.09,.02,.41,.62,.75,.88,1.02,.51,.52,.99,1.09,1.28,1.77-.04,.07,.03,.14,.11,.14,.04,.01,.08,0,.11-.02,.12-.13,.17-.28,.28-.42,.22-.26,.49-.51,.74-.74,.12-.12,.41-.59,.21-.76-.07-.06-.27-.02-.16-.17,.16-.24,.28-.48,.4-.74Zm-.75,.93c-.02,.05,.03,.12,.08,.13,.55,.08-.27,.82-.44,.98-.1,.09-.18,.2-.25,.3,0-.17-.03-.35-.04-.46-.04-.75-.12-1.45-.27-2.2-.27-1.38-.95-2.76-2.17-3.53-.12-.07-.24,.1-.11,.18,1.12,.71,1.74,1.96,2.03,3.21,.15,.67,.3,1.38,.3,2.06,0,.15,.07,.56,.04,.84-.36-.73-.91-1.36-1.51-1.89-.05-.04-.62-.54-.39-.58,.1-.02,.17-.11,.24-.18,.18-.2-.09-.51-.19-.68-.23-.4-.71-.64-.98-1.02-.03-.04-.27-.54-.27-.54,.13,0,.2,.03,.31-.07,.17-.15-.11-.6-.15-.73-.16-.49-.19-.94-.14-1.44,.32,.19,.59,.4,.96,.5,.55,.15,1.11,.18,1.65,.4,.56,.22,1.03,.74,1.35,1.23,.17,.27,.26,.57,.32,.87,.03,.16,0,.3,.07,.44,.03,.05,.08,.05,.13,.05,.13-.02,.17-.1,.24-.17,.12,.89-.46,1.52-.79,2.3Z"/><path class="cls-2" d="M27.41,35.71c-.18-.11-.38-.11-.24-.39,.12-.23,.1-.14,.24-.43,.18-.36,.37-.67,.67-.94,.07-.07,0-.17-.08-.17-.48,0-.84,.04-1.3,.17-.37,.1-.8,.16-1.19,.19v-.17s0-.03,0-.04c0-.01,0-.03,0-.04,0-.19,.02-.34-.07-.5-.04-.07-.13-.06-.18-.02-.3,.22-.45,.71-.64,1.01-.28,.44-.63,.95-1.09,1.25-.07-.24-.09-.51-.25-.7-.03-.03-.1-.04-.14-.02-.25,.17-.39,.52-.51,.79-.15,.33-.31,.64-.52,.94-.07,.1-.4,.49-.68,.64-.14-.05-.29-.07-.46-.08-.11,0-.14,.11-.08,.17,0,0,0,0,0,0,0,.05,.03,.11,.1,.11,.12,.07,.26,.06,.4,0,.56,.22,1.04,.81,1.28,1.33,.08,.17,.22,.68,.47,.68s.44-.48,.52-.65c.08-.18,.12-.45,.38-.45,.38,0,.75,.02,1.12,.12,.3,.09,.84,.6,1.16,.52,.3-.07,.2-.56,.14-.75-.07-.21-.11-.39-.24-.58-.21-.3,.14-.43,.31-.56,.37-.26,.74-.36,1.17-.45,.21-.04,.45,0,.64-.08,.03-.02,.06-.05,.06-.09-.03-.46-.67-.62-.99-.83Zm.24,.81c-.26,.05-.53,.09-.77,.2-.3,.13-.83,.4-1.01,.68-.04,.06-.02,.16,0,.21,.14,.25,.29,.47,.38,.74,.21,.62-.3,.31-.57,.17-.2-.1-.38-.17-.59-.24-.43-.12-.95-.13-1.38-.07-.04,0-.07,.04-.08,.07-.13,.33-.23,.61-.42,.92-.03,.05-.49-.77-.57-.89-.23-.32-.48-.62-.78-.83,.66,0,1.29-.07,1.93-.35,.5-.23,.97-.52,1.46-.78,.3-.16,.67-.34,.88-.61,.09-.11-.12-.21-.2-.1-.23,.3-.66,.47-.98,.64-.42,.23-.84,.48-1.27,.68-.62,.29-1.25,.33-1.91,.33,.18-.14,.35-.3,.43-.4,.32-.38,.49-.84,.72-1.27,.04-.08,.27-.4,.25-.48,.08,.21,.11,.45,.2,.65,.03,.06,.1,.1,.17,.06,.31-.17,.6-.47,.82-.75,.21-.26,.38-.53,.56-.81,.12-.19,.21-.47,.36-.67,0,.08,.01,.16,0,.23,0,.02,0,.03,0,.04,0,.01,0,.03,0,.04v.28c0,.06,.06,.11,.11,.1,.8-.05,1.55-.31,2.34-.36-.19,.2-.35,.42-.46,.68-.12,.26-.53,.67-.39,.96,.04,.07,.21,.13,.27,.16,.28,.14,.6,.32,.86,.51,.32,.24-.22,.19-.36,.22Z"/><path class="cls-2" d="M29.81,31.44c.11-.13,.11-.27-.04-.38-.17-.11-.28-.3-.46-.41-.22-.14-.45-.26-.68-.39-.34-.2-1.09-.19-1.37-.52-.02-.03-.04-.06-.06-.09-.07-.11-.26-.02-.2,.1,.02,.05,.05,.09,.08,.12,0,0,.01,.02,.02,.03,0,0,0,.01,0,.02,.11,.55,.06,1.19,.11,1.76,.02,.21-.08,.47,.14,.6,.04,.02,.1,.02,.14-.02,.03-.03,.25-.32,.29-.18,.06,.18,.07,.36,.17,.53,.17,.27,.32,.61,.54,.84,.05,.05,.14,.04,.18-.02,.27-.43,.66,.36,.92,.49,.04,.02,.1,.02,.14-.02,.37-.4-.31-.95,.32-1.16,.05-.02,.08-.05,.08-.1,.02-.4-.62-.82-.31-1.19Zm-.31,1.37c-.04,.11-.04,.11,0,.22,.03,.09,.15,.7,.05,.61-.24-.2-.31-.62-.65-.71-.16-.04-.27,.11-.36,.25-.3-.38-.47-.9-.61-1.34-.06-.19-.26-.1-.36-.03-.05,.03-.15,.19-.15,.15-.02-.16,.02-.31,0-.48-.07-.39-.04-.79-.05-1.19,.46,.69,.92,1.37,1.42,2.02,.08,.1,.28,0,.2-.1-.52-.69-1-1.4-1.48-2.11,.02,0,.05,.02,.07,.03,.47,.16,.91,.3,1.35,.54,.25,.14,.45,.29,.64,.51,.13,.14,0,.23-.1,.34-.21,.25,.19,.63,.32,.79,.27,.34-.2,.3-.28,.5Z"/><path class="cls-2" d="M32.68,33.31c-.2-.38-.39-.78-.55-1.18-.08-.2-.12-.43-.24-.62-.04-.07-.19-.07-.21,.02-.12,.75-.46,1.38-1.04,1.89-.45,.4-.98,.68-1.32,1.2-.46,.69-.04,1.42,.68,1.53-.09,.23,.02,.69,.19,.83,.36,.32,.76,.36,1.24,.3,1.13-.15,1.88-1.23,1.84-2.32-.02-.61-.31-1.13-.59-1.65Zm-1.45,3.79c-.27,.02-.53,.02-.76-.14,.1,.07-.46-.71-.2-.8,.34-.11,.63-.29,.9-.52,.19-.17,.46-.61,.54-.85,.09-.28-.05-.72,.1-.95,.08-.12-.12-.21-.2-.1-.08,.12-.08,.19-.07,.33,.02,.4-.09,.7-.29,1.05-.21,.37-.47,.58-.85,.77-.09,.05-.16,.06-.22,.09,0,0,0,0,0,0-.86,0-.95-.8-.58-1.36,.28-.43,.8-.72,1.2-1.03,.53-.41,.87-1.01,1.03-1.65,.08,.21,.14,.44,.23,.64,.25,.51,.52,1.01,.75,1.52,.59,1.26-.12,2.92-1.6,3.01Z"/><path class="cls-2" d="M37.06,30.94s-.03-.02-.06-.02c-.82-.01-1.37-.04-2.05,.43-.19,.13-.34,.28-.48,.47-.21,.29-.58,.51-.75,.82-.03,.05-.01,.11,.04,.14,.66,.39,1.53,.64,2.23,.23,.65-.38,.91-1.29,1.13-1.96,.02-.05,0-.09-.05-.11Zm-.78,1.45c-.48,.78-1.43,.7-2.17,.37-.28-.13,.05-.28,.19-.42,.2-.2,.34-.43,.54-.63,.54-.55,1.17-.59,1.87-.59-.51,.46-1.16,.92-1.81,1.08-.14,.03-.08,.23,.06,.2,.65-.16,1.29-.58,1.8-1.04-.13,.36-.28,.7-.48,1.03Z"/><path class="cls-2" d="M16.74,33.37c.3-.4-.13-.73-.34-1.04-.22-.32-.42-.65-.67-.95-.26-.32-.66-.93-.67-1.35,0-.08-.09-.11-.16-.09-.02,0-.04-.01-.07,0-.54,.15-.97,.4-1.42,.74-.28,.21-.53,.53-.84,.69-.14,.07-.29,.16-.4,.28-.03,.04-.02,.1,.02,.12,.37,.3-.59,.5-.59,.78,0,.19,.2,.24,.02,.47-.06,.07-.14,.23-.08,.33,.17,.27,.59,.33,.88,.33,.26,0,.19,.01,.03,.35-.22,.47-.56,.8-1.05,.98-.1,.03-.12,.17,0,.2,.43,.1-.17,.82,.39,.74,.2,.49,0,1.12-.1,1.6-.02,.08,.06,.15,.14,.13,.18-.07,.35-.18,.52-.29,.35-.24,.21,0,.44,.04,.46,.08,.85-.33,1.1-.68,.25-.33,.6-.14,.67-.64,.05-.32,0-.65,.12-.95,.11-.28,.38,.04,.51,.19,.03,.03,.08,.03,.11,.03,.32-.08,.36-.51,.35-.79,.31-.03,.78-.16,.81-.51,.02-.21,.01-.4-.02-.61,0,.04,.27-.05,.3-.09Zm-.32-.11c-.08,.03-.15,.05-.2,.13-.04,.06,.01,.15,.02,.21,.09,.5-.2,.76-.7,.78-.08,0-.11,.06-.11,.12,0,.01,0,.03,0,.04,.02,.31,.02,.69-.29,.44-.09-.07-.22-.15-.33-.17-.23-.06-.3,.19-.37,.36-.08,.2-.06,.37-.06,.58,0,.16-.02,.55-.25,.53-.06,0-.09-.01-.14,0-.23,.1-.88,1.31-1.18,.81-.03-.04-.08-.05-.13-.05-.28,.05-.48,.21-.72,.34,.13-.53,.25-1.12,0-1.62-.04-.07-.12-.06-.17-.02,0,0,0,0-.01,0-.09,.02,.12-.38,.09-.49-.02-.08-.08-.12-.14-.16,.49-.25,1.01-.73,1.08-1.27,.02-.15,.04-.38-.18-.38-.24,0-.44,.02-.71-.08-.32-.12,.06-.35,.04-.49-.05-.35,.08-.43,.36-.65,.12-.1,.33-.35,.16-.5,.01,.01,.72-.59,.78-.65,.45-.39,.9-.69,1.44-.88,.02,.11,.03,.22,.04,.33-.03,.02-.05,.04-.05,.08,0,.39-.3,.62-.57,.87-.22,.21-.45,.4-.64,.64-.09,.11,.12,.21,.2,.1,.23-.3,.54-.52,.8-.8,.1-.1,.18-.18,.25-.27-.03,.33-.08,.66-.16,.98-.03,0-.06,.03-.08,.06-.11,.28-.33,.4-.56,.56-.23,.15-.47,.27-.72,.37-.14,.06,0,.23,.11,.18,.36-.15,.81-.35,1.11-.65-.08,.29-.17,.56-.26,.82-.13,.39-.28,.78-.44,1.16-.02,.04-.04,.08-.06,.12-.42,.17-.87,.28-1.32,.29-.14,0-.14,.21,0,.2,.4-.01,.79-.09,1.16-.22-.2,.3-.46,.55-.7,.81-.1,.11,.07,.24,.16,.14,.19-.2,.37-.39,.54-.6,0,.15,0,.3-.03,.44-.02,.13,.21,.13,.23,0,.03-.25,.03-.49,.03-.74,.01-.02,.03-.04,.04-.06,.25-.38,.39-.87,.54-1.31,0,.02,.01,.04,.02,.05,.07,.13,.19,.21,.29,.32,.08,.1,.29,0,.2-.1-.07-.08-.15-.15-.22-.22-.12-.12-.11-.31-.11-.46,0-.02,0-.04-.02-.05,.09-.26,.18-.55,.25-.84,.05,.14,.12,.27,.19,.39,.1,.17,.31,.43,.51,.49,.13,.04,.2-.15,.06-.2-.14-.04-.35-.36-.41-.46-.16-.27-.16-.53-.22-.83,0,0,0,0,0,0,.07-.43,.11-.85,.08-1.26,.1,.22,.24,.42,.35,.63,.15,.29,.39,.53,.58,.8,.14,.19,.24,.43,.4,.6,.14,.15,.49,.55,.12,.7Z"/><path class="cls-2" d="M20.03,31.85c-.41-1.05-1.66-1.69-2.67-1.97-.06-.02-.15,.03-.14,.1,0,.09,.02,.12,.07,.2,.15,.31,.13,.62,.15,.96,.05,.59,.12,1.14,.36,1.68,.28,.63,1.09,1.54,1.86,1.49,.03,.06,.12,.09,.19,.04,.74-.62,.49-1.73,.19-2.51Zm-.24,2.25c-.16-.17-.25-.48-.3-.7-.08-.3-.25-.57-.36-.86-.17-.41-.34-.83-.62-1.18-.08-.1-.29,0-.2,.1,.36,.42,.53,.98,.75,1.48,.16,.34,.23,.83,.46,1.16-.49-.05-.96-.59-1.24-.93-.34-.42-.5-.92-.56-1.45-.04-.38-.08-.76-.09-1.14,0-.19-.1-.32-.16-.46,.87,.27,1.65,.75,2.17,1.51,.43,.62,.71,1.82,.14,2.46Z"/><path class="cls-2" d="M25.25,30.15s0,0,0,0c0-.06-.06-.12-.14-.1-.39,.1-.66,.04-1.02,.24-.37,.21-.67,.52-.93,.85-.46,.56-1.08,1.69-.99,2.44,0,.05,.03,.08,.08,.1,.8,.28,1.87-.43,2.38-.99,.54-.59,.91-1.76,.62-2.53Zm-.61,2.13c-.24,.42-.64,.72-1.06,.96-.08,.04-1.18,.42-1.2,.26-.04-.29,.17-.71,.27-.98,.14-.4,.35-.78,.59-1.13,.25-.37,.58-.69,.96-.92,.21-.13,.42-.15,.63-.17-.11,.13-.2,.29-.29,.41-.27,.38-.53,.84-.85,1.18-.1,.11,.07,.24,.16,.14,.17-.18,.29-.42,.43-.63,.19-.27,.48-.82,.78-1.06,.16,.65-.13,1.39-.44,1.93Z"/><path class="cls-2" d="M20.4,38.17c.26-.29-.04-.63-.21-.87-.25-.35-.84-.79-1.26-.89-.11-.02-.22-.05-.33-.08,.09,.03,.28,0,.42,0,.19-.02,.31-.04,.41-.19,.02-.03,.02-.07,0-.1-.48-.75-1.34-.95-2.16-.99-.02,0-.04,0-.05,.01,0,0,0,0,0,0-.46,.23-.96,.62-1.29,1.01-.31,.37-.81,.89-.94,1.36-.01,.04,0,.1,.05,.12,.21,.09,.4,.02,.63,.01,.15,0-.3,.79-.31,.83-.21,.55-.43,1.28-.37,1.88,0,.09,.1,.12,.17,.09,.23-.11,.41-.35,.59-.53,.18-.18,.34-.29,.57-.41,.26-.14,.27,.16,.35,.36,.22,.58,.33,1.07,.84,1.46,.05,.04,.15,.05,.18-.02,.11-.24,.07-.5,.2-.74,.54,.34,.66,1,1.12,1.42,.18,.17,.36,.03,.43-.15,.18-.5,.13-1.04,0-1.55-.15-.59,.28-.26,.68-.3,.05,0,.09-.03,.11-.07,.22-.56-.39-1.23-.76-1.68,.22,0,.43,0,.65,.02,.07,0,.24,.05,.31-.03Zm-1.18-.23c-.12-.03-.19,.13-.1,.18,.22,.28,.44,.56,.64,.86,.11,.17,.18,.68,.25,.72-.05-.03-.22-.03-.23-.03-.16-.01-.67-.12-.67,.18,0,.19,.09,.41,.13,.59,.11,.43,.05,.84-.05,1.27-.04,.15-.36-.36-.37-.38-.09-.15-.19-.3-.28-.46-.16-.27-.35-.46-.63-.61-.05-.03-.1-.01-.13,.02-.03,0-.06,.02-.08,.05-.14,.21-.12,.44-.18,.66-.22-.21-.36-.46-.47-.75-.12-.3-.19-.85-.45-1.08-.15-.14-.48,.09-.59,.14-.33,.17-.53,.56-.83,.78-.01-.6,.2-1.3,.45-1.8,.1-.21,.52-.66,.27-.89-.09-.08-.31-.04-.42-.04-.38,.01-.11-.18,.04-.41,.39-.61,.94-1.22,1.58-1.6-.06,.44,.05,.98,.14,1.38,.15,.67,.39,1.22,.78,1.78,.07,.11,.28,.01,.2-.1-.38-.55-.59-1.08-.75-1.73-.08-.33-.11-.66-.11-1,0-.14-.07-.41,.03-.41,.66,0,1.23,.2,1.7,.68,.24,.24-.34,.17-.43,.2-.13,.04-.21,.05-.3,.14-.04,.04-.05,.11,0,.14,.09,.06,.17,.08,.28,.11,.4,.11,.76,.3,1.08,.57,.03,.02,.83,.85,.53,.88-.27,.03-.75,0-1.01-.06Z"/><path class="cls-2" d="M10.75,31.69c-.51,.1-1.06,.21-1.58,.27-.47,.05-.94,.2-1.41,.2-.18,0-.37-.05-.43,.16-.06,.21,.26,.6,.37,.73,.56,.62,1.31,.95,2.15,.65,.33-.12,.53-.39,.71-.67,.25-.4,.23-.71,.3-1.15,0,0,0,0,0,0,.07-.06,0-.19-.11-.17Zm-.71,1.65c-.35,.34-.94,.28-1.38,.19-.4-.08-.79-.58-.99-.89-.24-.38,.22-.26,.47-.29,.29-.04,.58-.11,.87-.15,.52-.08,1.04-.16,1.55-.26-.48,.7-1.23,1.14-2.11,1.03-.14-.02-.21,.18-.06,.2,.87,.11,1.62-.23,2.16-.86-.08,.38-.19,.72-.52,1.04Z"/></g><g><path class="cls-4" d="M38.95,15.55c0,.09,0,.18,0,.27-.09-.09-.09-.08,.02,.03,.01,.02,.02,.04,.04,.06,0-.35,.08-.71,.08-1.04,0-.26,.13-.69,.02-.92-.13-.27-.35-.42-.53-.64-.34-.41,.18-1.41-.26-1.67-.52-.3-1.19-.17-1.66-.59-.15-.13-.27-.27-.45-.34-.2-.08-.33,.16-.46,.25-.21,.16-.5,.22-.76,.21-.3,0-.48,.03-.75,.1,0,0,0,0,0,.01,0,.13,.02,.25,0,.38-.03,.24-.17,.42-.35,.57-.24,.19-.23,.22-.16,.53,0,.03,.01,.05,.01,.08,.06-.01,.12-.02,.18-.02,.14,0,.25,.03,.33,.09,0,0,0,0,0,0,.04,0,.09-.01,.14-.02,.05,0,.1,0,.15,0,.05,0,.13,0,.2-.02,.05-.32,.16-.51,.47-.79,.31-.28,.6-.47,1.03-.33,.31,.1,.61,.34,.77,.62,.2,.34,.53,.23,.85,.36,.39,.16,.35,.88,.48,1.2,.16,.4,.35,.8,.51,1.2,.06,.14,.09,.28,.09,.43Zm1.05-2.06c.17,.28,.25,.55,.16,.88-.1,.36,.03,.74-.06,1.09-.07,.24-.1,.59,0,.82,.11,.25-.13,.52-.36,.57-.2,.04-.4,.07-.61,.06,.07,1.01,.47,1.97,.61,2.98,.14,1.02,.1,1.98-.14,2.98-.23,.96-.56,1.89-.92,2.81-.29,.75-.74,1.51-.87,2.32,.07,.12,.08,.27,0,.43-.43,.79-1.44,.83-2.23,1.01-1.1,.25-2.2,.23-3.33,.19-.94-.04-2.07,.14-2.92-.34-.81-.46-.44-1.45-.28-2.19,.12-.59,.64-1.12,1.25-1.01,.11-.17,.23-.33,.37-.47-.37-.14-.67-.41-.86-.8-.34-.68-.17-1.54,.08-2.22,.14-.39,.25-.8,.42-1.18,.15-.33,.4-.66,.46-1.02,0-.05,.02-.1,.05-.14,0-.01,0-.02,0-.03-.01-.43,.02-1.06,.29-1.43-.17-.11-.58-.25-.79-.5-.22-.25-.55-.53-.65-.85-.1-.31-.05-.8-.02-1.12,.03-.33,.21-.65,.41-.91,.43-.58,1.2-.95,1.92-.9,.41,.03,.73,.13,1.1,.3,.06,.03,.14,.08,.23,.14,.04-.3,.12-.6,.19-.9-.07,.06-.13,.12-.19,.14-.28,.12-.57,.15-.82-.06-.23-.21-.15-.55-.17-.83-.02-.29,.18-.44,.38-.58-.03-.23-.11-.45,0-.7,.12-.28,.35-.34,.54-.55-.05,.06-.04-.24-.04-.32,0-.12,0-.22,.03-.34,.05-.29,.44-.44,.69-.47,.16-.02,.5-.17,.77-.15,.08,0,.39,.04,.42,0,.1-.11,.19-.22,.32-.3,.64-.4,1.34-.08,1.85,.38,.28,.25,.68,.19,1.01,.29,.25,.07,.66,.23,.84,.44,.47,.54,.33,1.2,.33,1.87,0-.13,.24,.17,.27,.21,.1,.12,.18,.24,.26,.38Zm-1.44,9.32c.15-.6,.24-1.22,.24-1.83-.21,.26-.49,.46-.84,.53-.4,.08-.8,.12-1.2,.13-.27,0-.45-.07-.63-.17-.1,.15-.21,.3-.31,.45-.35,.52-.76,1.07-1.27,1.45,.11,.08,.22,.14,.32,.18,.25,.1,.49,.16,.55,.47,.05,.26,.08,.58-.04,.82-.25,.48-.96,.49-1.43,.41-.34-.05-.59-.26-.81-.5,0,0-.01,.01-.02,.02-.06,.06-.12,.12-.19,.18-.36,.53-1.08,.87-1.49,1.3-.34,.36-.38,.72-.45,1.2-.01,.09-.09,.31-.09,.46,.07,.09,.17,.17,.34,.23,.47,.18,.91,.16,1.4,.16,.53,0,1.04-.01,1.56-.12,.53-.11,1.05-.17,1.58-.25,.22-.04,.44-.13,.66-.16,.11-.01,.26-.01,.39-.04,.16-.74,.52-1.42,.8-2.13,.35-.91,.71-1.84,.94-2.79Zm-.47-6.06c0-.1,.02-.18,.06-.24-.09-.12-.16-.26-.2-.44-.03-.17,.03-.43-.04-.59-.1-.26-.2-.52-.31-.78-.1-.24-.25-.46-.32-.72-.04-.15-.07-.29-.1-.44-.32-.05-.64-.23-.86-.44-.14-.13-.18-.32-.33-.43-.02,.01-.03,.03-.06,.05-.04,.04-.08,.08-.12,.11-.06,.09-.08,.19-.08,.3-.04,.44-.52,.56-.88,.64-.09,.02-.18,.03-.27,.03-.04,.32-.1,.65-.2,.94-.13,.38-.15,.69,.11,1.02,.09,.11,.11,.23,.09,.32,0,.02,.01,.03,.02,.05,.07,.1,.13,.19,.19,.29,.18,.2,.41,.33,.67,.31,.24-.02,.47-.22,.67-.35,.16-.11,.49-.24,.6-.38,.36-.47,1.28-.04,.89,.47-.06,.08-.13,.15-.21,.22,.19,.07,.37,.17,.54,.28,.06,.04,.1,.08,.14,.13,0-.12-.02-.23-.02-.35Zm-.39,3.86c.65-.39,.76-1.05,.33-1.65-.16-.22-.13-.49-.4-.64-.23-.13-.47-.24-.72-.34-.41-.16-.78-.1-1.17-.12-.19,.19-.37,.43-.53,.59-.37,.39-.57,.9-.94,1.29-.26,.28-.45,.64-.78,.84,.03,.35,.03,.7-.03,1.06-.05,.32,.12,.71,.39,1.06,0,0,.01-.01,.02-.01,.55-.36,.87-1.01,1.26-1.52,.36-.47,.44-1.03,.76-1.51,.32-.5,1.24-.07,.89,.47-.1,.16-.17,.33-.23,.51,.11,.06,.21,.1,.34,.09,.25-.02,.58,.04,.81-.1Zm-3.87,3.47c.1,.18,.38,.28,.58,.28-.1-.04-.21-.08-.3-.16-.12-.1-.26-.18-.38-.28,.04,.05,.07,.1,.1,.16Zm0-5.92c.14-.2,.39-.45,.36-.72-.01-.15-.17-.37-.25-.49-.08-.11-.37-.6-.57-.84-.35-.11-.63-.39-.96-.54-.44-.2-.97-.14-1.33,.2-.43,.4-.4,.78-.4,1.32,0,.34,.5,.7,.84,.84,.36,.14,.55,.51,.92,.66,.53,.21,1.07,.02,1.38-.43Zm-.61,5.27c-.23-.28-.43-.57-.61-.88-.29-.5-.13-.89-.13-1.43,0-.49-.07-.95-.15-1.43-.01-.07-.01-.14,0-.2-.13-.04-.26-.08-.38-.14-.04,.07-.1,.64-.09,.71,.01,.34-.04,.7,.02,1.03,.13,.64,.3,1.14,.67,1.68,.18,.26,.43,.45,.68,.65Zm-1.1,.87c.03-.15,.13-.25,.25-.3-.5-.42-.92-.94-1.19-1.53-.03-.07-.06-.15-.09-.22-.16,.43-.33,.87-.4,1.31-.07,.44-.05,1.32,.61,1.26,.25-.02,.53-.21,.77-.41,.02-.04,.03-.07,.04-.11Zm-2.02,4.29s-.08-.1-.11-.15c-.05-.07-.08-.14-.11-.22-.03,.15-.04,.27-.02,.27,.08,.04,.16,.07,.25,.09Z"/><path class="cls-1" d="M38.81,20.99c0,.61-.1,1.22-.24,1.83-.23,.95-.58,1.88-.94,2.79-.28,.71-.64,1.39-.8,2.13-.13,.02-.28,.02-.39,.04-.22,.03-.44,.13-.66,.16-.53,.09-1.06,.15-1.58,.25-.53,.11-1.03,.12-1.56,.12-.49,0-.93,.02-1.4-.16-.17-.06-.27-.14-.34-.23,0-.15,.08-.37,.09-.46,.06-.47,.1-.84,.45-1.2,.41-.43,1.13-.77,1.49-1.3,.07-.06,.13-.12,.19-.18,0,0,.01-.01,.02-.02,.23,.24,.47,.44,.81,.5,.46,.07,1.18,.07,1.43-.41,.13-.24,.09-.56,.04-.82-.06-.31-.3-.37-.55-.47-.1-.04-.21-.1-.32-.18,.52-.38,.92-.92,1.27-1.45,.11-.15,.21-.3,.31-.45,.18,.1,.37,.18,.63,.17,.4,0,.8-.04,1.2-.13,.35-.07,.63-.27,.84-.53Z"/><path class="cls-3" d="M34.55,12.88c-.05,0-.1,0-.15,0-.05,0-.09,.01-.14,.02,0,0,0,0,0,0-.08-.06-.19-.1-.33-.09-.07,0-.13,.01-.18,.02,0-.03,0-.05-.01-.08-.07-.31-.08-.34,.16-.53,.18-.15,.32-.33,.35-.57,.02-.13,0-.25,0-.38,0,0,0-.01,0-.01,.27-.07,.45-.1,.75-.1,.26,0,.54-.05,.76-.21,.13-.09,.25-.33,.46-.25,.19,.07,.31,.21,.45,.34,.47,.42,1.15,.29,1.66,.59,.45,.26-.08,1.26,.26,1.67,.18,.22,.4,.38,.53,.64,.12,.23-.02,.65-.02,.92,0,.33-.08,.69-.08,1.04-.01-.02-.02-.04-.04-.06-.1-.11-.11-.12-.02-.03,0-.09,0-.18,0-.27,0-.15-.03-.29-.09-.43-.16-.4-.35-.8-.51-1.2-.13-.32-.09-1.04-.48-1.2-.32-.13-.65-.02-.85-.36-.17-.28-.46-.52-.77-.62-.43-.13-.72,.05-1.03,.33-.3,.28-.41,.47-.47,.79-.07,.02-.15,.02-.2,.02Z"/><path class="cls-1" d="M27.35,22.6c.01,.98,.08,2.02-.37,2.92-.21,.42-.6,.77-.92,1.1-.34,.35-.68,.62-1.15,.76-.86,.25-1.94,.15-2.83,.1-.46-.03-.94-.13-1.4-.23-.4-.08-.75-.3-1.15-.39-.45-.09-.86-.35-1.27-.56-.17-.08-.32-.17-.47-.26,.11-.08,.18-.21,.2-.35,.12-.02,.24-.05,.37-.08,.32-.09,.6-.25,.89-.4,.31-.16,.56-.15,.9-.15,.11,0,.21-.03,.28-.07,.24-.04,.47-.1,.7-.18,.95-.35,1.81-.83,2.59-1.47,1.21-.99,2.39-2.36,2.91-3.87,.06,.08,.12,.16,.17,.24,.26,.4,.31,.93,.4,1.39,.09,.51,.14,1,.15,1.51Z"/><path class="cls-4" d="M28.09,20.31c-.19-.93-.72-1.69-1.52-2.16,.1-.09,.19-.22,.25-.37,.07-.17,.05-.46,.01-.63,0-.03,0-.06-.01-.08,.06-.08,.09-.16,.12-.25,.05-.16,0-.35-.13-.45,0,0,0,0,0,0,.15-.09,.25-.24,.28-.42,.07-.35,0-.63-.15-.88,.13-.16,.17-.33,.19-.54,.04-.33-.1-.62-.32-.84,.06-.15,.07-.33,.02-.51-.08-.3-.28-.54-.54-.71,.02-.21-.02-.42-.11-.61-.08-.17-.19-.29-.34-.4-.07-.06-.15-.1-.23-.14-.18-.09-.22-.17-.2,0-.06-.4-.09-.66-.48-.88-.24-.14-.52-.13-.79-.08,0-.01-.01-.03-.02-.04-.11-.17-.3-.25-.5-.27-.33-.04-.62,.19-.85,.42-.18-.04-.38-.05-.56,0-.23,.06-.41,.16-.59,.32-.06,.07-.12,.14-.17,.21,0,0,0,0,0,0-.1-.04-.21-.07-.35-.07-.16,0-.32,.02-.45,.09-.03-.02-.07-.04-.11-.06-.55-.24-1-.3-1.36,.27-.15,.23-.3,.07-.58,.24-.16,.1-.32,.23-.4,.4h-.04c-.13,0-.26,.03-.39,.05-.31,.05-.54,.23-.73,.46-.13,.16-.16,.59-.1,.79,.01,.05,.04,.08,.06,.12,0,0,0,0-.01,.01-.16,.15-.3,.34-.32,.56-.02,.21,.05,.36,.15,.51-.44,.14-.87,.35-.89,.81,0,.26,.21,.55,.34,.75,.06,.08,.15,.17,.26,.23-.03,.13-.03,.3,0,.39,.04,.14,.11,.24,.19,.33-.06,.14-.07,.29,.03,.45,.1,.16,.26,.24,.43,.3-.04,.16,0,.34,.09,.47,.1,.16,.27,.24,.45,.29,.01,0,.05,.01,.09,.02,.02,.08,.04,.17,.07,.25-.11,.07-.22,.16-.32,.26-.34,.33-.61,.75-.75,1.2-.13,.41-.32,1.04-.14,1.45,.01,.03,.02,.05,.04,.07-.7,.15-1.3,.68-1.41,1.49-.09,.72,.08,1.19,.42,1.81,0,.02,.02,.03,.03,.05-.04,.06-.06,.14-.06,.23,0,.83-.23,1.6,.34,2.31,.23,.29,.47,.58,.78,.79,.37,.25,.83,.36,1.27,.45,.88,.19,1.76,.19,2.66,.22,.83,.02,1.63-.21,2.42-.4,.1-.02,.18-.06,.23-.12,.49-.01,.97-.05,1.43-.12,1.11-.15,1.84-.93,2.55-1.72,.75-.84,.98-1.83,.99-2.93,.01-1.16-.05-2.25-.28-3.39Zm-7.76-4.2c-.08-.26-.02-.63-.02-.91,0-.46,.17-.72,.4-1.07,.05-.02,.08-.05,.11-.08,.03,0,.06-.01,.09-.03,.05-.02,.09-.04,.14-.05,.12-.09,.15-.1,.11-.02,.1,.06,.23,.1,.34,.1,.02,.13,.08,.24,.16,.34,.14,.16,.29,.21,.45,.23,0,.19,.04,.38,.12,.51,.08,.13,.24,.24,.38,.28,.07,.01,.15,.02,.22,.02,.02,.08,.05,.16,.14,.23,.07,.06,.14,.09,.22,.11-.14,.76-.61,1.46-1.47,1.47-.4,0-.8,.01-1.07-.32-.15-.18-.25-.4-.31-.63,0-.06,0-.12-.02-.19Zm-2.32,3.82c.29-.46,.6-.69,1.14-.76,.63-.09,2.17-.14,2.22-.99,.12,0,.24,0,.36,0,.49-.01,.9-.16,1.29-.39,.05,.17,.13,.34,.26,.51,.26,.32,.65,.37,1.04,.37,.47,0,1-.06,1.44,.14-.35,1.35-1.29,2.43-2.27,3.42-.26,.26-.53,.5-.83,.71-.01-.1,0-.21,0-.29,0-.26,.19-.46,.34-.66,.39-.51-.54-.94-.89-.47-.26,.35-.46,.68-.48,1.13-.02,.28,.02,.59,.14,.86-.08,.05-.17,.09-.25,.13-.18,.09-.37,.17-.55,.25,.06-.06,.12-.13,.18-.21,.14-.19,.18-.45,.27-.66,.23-.58-.78-.8-1-.25-.1,.24-.11,.42-.31,.6-.12,.11-.24,.15-.38,.16-.08-.33-.36-.59-.68-.72-.11-.11-.2-.24-.3-.37,.09-.08,.15-.18,.17-.31,0-.01,.01-.04,.02-.06,0-.01,.01-.02,.02-.03,0,0,.01-.02,.02-.03,0,0,0,0,0,0,.01-.01,.03-.03,.05-.06,.02-.03,.04-.06,.06-.09,.14-.04,.26-.14,.31-.3,.07-.24-.1-.54-.36-.57-.18-.03-.36-.03-.52,.08-.13,.09-.24,.2-.32,.34-.01,.02-.02,.03-.03,.05,.02-.02,.03-.04,.04-.04-.01,.01-.04,.04-.08,.09-.03,.04-.06,.08-.08,.13-.02,.04-.04,.08-.06,.12-.09-.04-.18-.07-.28-.1,.06-.09,.07-.21,0-.34-.16-.36,.14-1.07,.33-1.38Zm-1.69,3.81c-.02-.39,0-.77,.3-1.06,.33-.33,.76-.2,1.1,.02,.25,.32,.49,.83,.88,.93,0,0,.01,0,.02,0,.07,.06,.11,.13,.12,.24,0,.02,0,.04-.03,.07-.08,.07-.15,.16-.17,.27-.01,.02-.02,.04-.02,.05-.02,.1-.02,.18,0,.26-.04,.02-.08,.04-.11,.06-.49,.26-.97,.27-1.47,.25-.03-.03-.06-.06-.1-.09-.24-.22-.49-.67-.51-1Zm2.79,4.25c-.78-.1-1.53-.19-2.06-.8-.24-.27-.35-.48-.38-.8,.57,.52,1.26,.86,1.98,1.17,.43,.19,.9,.28,1.33,.45,.06,.02,.12,.05,.18,.07-.36-.01-.72-.05-1.05-.09Zm7.85-2.47c-.21,.42-.6,.77-.92,1.1-.34,.35-.68,.62-1.15,.76-.86,.25-1.94,.15-2.83,.1-.46-.03-.94-.13-1.4-.23-.4-.08-.75-.3-1.15-.39-.45-.09-.86-.35-1.27-.56-.17-.08-.32-.17-.47-.26,.11-.08,.18-.21,.2-.35,.12-.02,.24-.05,.37-.08,.32-.09,.6-.25,.89-.4,.31-.16,.56-.15,.9-.15,.11,0,.21-.03,.28-.07,.24-.04,.47-.1,.7-.18,.95-.35,1.81-.83,2.59-1.47,1.21-.99,2.39-2.36,2.91-3.87,.06,.08,.12,.16,.17,.24,.26,.4,.31,.93,.4,1.39,.09,.51,.14,1,.15,1.51,.01,.98,.08,2.02-.37,2.92Z"/><path class="cls-1" d="M13.62,25c0,.58,.06,1.16-.19,1.7-.23,.5-.55,.91-.93,1.3-.87,.91-1.99,1.03-3.19,1.04-.63,0-1.23-.06-1.85-.18-.29-.06-.58-.1-.86-.16-.23-.05-.43-.14-.64-.2-.29-.27-.12-1.32-.07-1.65,.05-.33,.19-.66,.37-.94,.07-.11,.13-.19,.18-.31,.05-.13,.19-.16,0-.1,.16-.05,.26-.13,.31-.24,.46,.25,.91,.54,1.41,.72,.32,.12,.66,.2,.98,.34,.14,.06,.28,.14,.41,.21,0,0,.24,.1,.22,.07,.02,.01,.04,.02,.06,.04,.57,.3,1.06,.63,1.74,.46,.63-.16,1.17-.61,1.42-1.19,.25-.59-.33-1.04-.8-1.24-.55-.23-1.13-.2-1.7-.1-.09-.02-.18-.02-.29,.02-.52,.19-1.31-.7-1.69-.97-.49-.34-.94-.8-1.27-1.29,.01-.1,.02-.2,.07-.29,.14-.25,.21-.57,.32-.84,.22-.55,.39-1.19,.49-1.77,.09-.5,.16-1.05,.13-1.57,.16,.05,.33,.07,.51,.08,.29,0,.81,0,1.2-.12,.06,.05,.12,.11,.18,.16,.36,.31,.71,.6,1,.98,.36,.48,.15,.93-.2,1.32-.03,.02-.07,.04-.1,.07-.3,.27-.54,.58-.79,.89-.24,.29-.26,.64-.26,1,0,.15,.09,.29,.18,.4,.12,.14,.07,.14,.12,.31,.1,.32,.4,.43,.69,.5,.85,.18,1.24-.33,1.59-1.02,.01-.03,.03-.06,.04-.09,.8,.63,1.24,1.66,1.23,2.67Z"/><path class="cls-4" d="M11.98,25.67c-.05-.05-.11-.09-.17-.12-.14-.06-.34-.13-.49-.12-.3,0-.57,.04-.86,.1-.06,.01-.11,.01-.16,0-.25,.05-.51,.01-.77-.07-.52-.18-1.01-.59-1.39-.88-.68-.54-1.36-1.07-1.84-1.81-.15-.09-.23-.25-.13-.46,.07-.15,.05-.35,.11-.52,.07-.18,.14-.37,.21-.56,.17-.45,.29-.91,.43-1.37,.17-.56,.25-1.13,.25-1.71,0-.29,.01-.49-.12-.75-.01-.02-.04-.06-.06-.11-.02,.02-.04,.05-.05,.07-.36,.49-.61,1.07-.87,1.62-.49,1.01-.85,2.37-.74,3.5,.12,1.27,1.54,1.72,2.47,2.29,.53,.32,1.14,.48,1.73,.69,.27,.1,.54,.22,.78,.37,0,0,.02,0,.02,.01,.3,.16,.55,.41,.92,.37,.2-.02,.55-.25,.66-.42,.02-.08,.04-.12,.07-.12Zm-5.55-.15c.2-.06,.05-.03,0,.1-.05,.12-.11,.2-.18,.31-.18,.28-.32,.61-.37,.94-.05,.33-.22,1.38,.07,1.65,.21,.06,.41,.15,.64,.2,.29,.06,.58,.1,.86,.16,.62,.12,1.22,.19,1.85,.18,1.2,0,2.32-.13,3.19-1.04,.38-.4,.69-.81,.93-1.3,.25-.54,.19-1.13,.19-1.7,.01-1.01-.42-2.04-1.23-2.67-.01,.03-.03,.06-.04,.09-.36,.69-.75,1.2-1.59,1.02-.29-.06-.6-.18-.69-.5-.05-.18,0-.17-.12-.31-.09-.11-.18-.25-.18-.4,0-.36,.02-.71,.26-1,.26-.31,.49-.62,.79-.89,.03-.03,.07-.05,.1-.07,.35-.39,.57-.84,.2-1.32-.29-.38-.64-.68-1-.98-.06-.05-.12-.1-.18-.16-.39,.13-.91,.13-1.2,.12-.18,0-.35-.03-.51-.08,.03,.52-.04,1.07-.13,1.57-.11,.58-.28,1.22-.49,1.77-.11,.27-.17,.59-.32,.84-.05,.09-.06,.19-.07,.29,.33,.5,.78,.95,1.27,1.29,.38,.27,1.17,1.16,1.69,.97,.11-.04,.21-.04,.29-.02,.57-.1,1.15-.13,1.7,.1,.47,.2,1.05,.65,.8,1.24-.25,.58-.8,1.04-1.42,1.19-.68,.17-1.17-.16-1.74-.46-.02-.01-.04-.02-.06-.04,.03,.04-.22-.07-.22-.07-.13-.07-.27-.15-.41-.21-.32-.13-.65-.22-.98-.34-.5-.18-.95-.47-1.41-.72-.05,.11-.15,.19-.31,.24Zm8.23-.87c0,.71,.08,1.45-.17,2.14-.21,.58-.54,1.09-.95,1.54-.92,1.02-2.08,1.63-3.48,1.65-.78,0-1.57,.03-2.34-.11-.35-.06-.7-.14-1.05-.2-.35-.05-.69-.26-1.03-.28-.18-.01-.3-.09-.38-.19,0,0-.01,0-.01-.01-.61-.53-.51-1.86-.35-2.56,.12-.51,.37-.88,.58-1.33,.09-.2,.21-.38,.36-.5-.39-.26-.76-.59-1.02-.93-.4-.51-.51-1.06-.52-1.69-.03-.98,.22-1.96,.58-2.89-.03-.01-.05-.02-.08-.04-.63-.38-.53-.94-.25-1.48-.09,.08-.17,.16-.26,.23-.46,.38-1.24-.23-.73-.66,.23-.19,.44-.4,.64-.63-.18-.1-.3-.3-.22-.51,.07-.18,.2-.29,.29-.45,.14-.26,.17-.55,.29-.82,.19-.46,.58-.76,.92-1.1,.04-.04,.07-.07,.1-.11-.11,.02-.23,.03-.35,.07-.6,.21-.9-.68-.27-.89,.12-.04,.23-.06,.35-.07,.52-.41,.89-.91,1.31-1.43,.43-.54,.95-.93,1.49-1.34,.54-.42,1.09-.65,1.79-.6,.32,.02,.69,.06,.98,.22,.27,.15,.49,.35,.74,.52,.02,.01,.04,.03,.06,.04,.02,.01,.04,.02,.05,.04,.44,.04,.79,.34,1.01,.73,.3,.53,.63,1.07,.86,1.64,.24,.6,.17,1.37,.12,2.01-.06,.74-.17,1.47-.18,2.21,0,.38-.41,.52-.71,.43-.13,.36-.8,.44-.97,.02,.01,.1,.03,.2,.03,.31,0,.2-.1,.33-.25,.4,.08,.08,.15,.16,.23,.25,.32,.38,.55,.84,.51,1.35-.03,.41-.23,.75-.48,1.06,.09,.07,.25,.16,.31,.22,.1,.11,.2,.22,.26,.35,.05,.01,.09,.03,.14,.06,1.12,.65,2.1,2.02,2.08,3.35Zm-2.6-11.06c.05-.13,.12-.26,.07-.41-.02-.07-.03-.14-.02-.2,0-.01-.02-.02-.02-.04-.54,.54-1.19,.99-1.8,1.47-.39,.31-.8,.65-1.24,.87-.28,.13-.53,.18-.77,.38-.02,.02-.04,.03-.06,.04,.05,.22-.04,.46-.34,.56-.06,.02-.12,.08-.18,.15,.29,.2,.57,.54,.9,.59,.19,.03,.38,0,.56-.04-.05-.07-.11-.15-.15-.22-.12-.18-.23-.39-.23-.62,0-.03,.04-.28,.06-.31,0-.02,.01-.05,.02-.07,.1-.37,.62-.45,.88-.22,.16,.05,.31,.14,.47,.2,.33,.13,.91-.08,1.15-.33,.3-.31,.46-.72,.57-1.14,.05-.21,.06-.46,.14-.67Zm-.34,3.16c0-.15,0-.3,.03-.45-.03,.02-.06,.04-.09,.05,.01,.13,.04,.27,.06,.4Zm-.51,5.63c.09-.15,.34-.46,.32-.64-.03-.21-.19-.3-.35-.4-.21,.23-.39,.49-.39,.78,0,.04,.22,.23,.24,.32,.01,.04,.02,.07,.03,.11,.06,0,.08-.04,.15-.16Zm-.02-11.3s-.05-.04-.07-.06c-.02,.01-.05,.02-.08,.03-.07,.02-.14,.04-.21,.04,0,0,0,0-.01,0,.13,0,.25,0,.37-.02Zm-.6,6c.06,.05,.12,.11,.18,.16-.03-.11-.06-.23-.08-.34-.02-.07-.03-.14-.04-.22-.08,0-.17,.01-.24,0-.07,0-.14-.02-.21-.03,.12,.15,.24,.29,.39,.42Zm0-4.81s-.05,.04-.08,.05c-.3,.19-.59,.42-.85,.65,0,0-.01,.01-.02,.01,0,0,.02,0,.03-.01,.35-.19,.63-.46,.93-.71Zm-1.09-1.46s-.07,.04-.11,.06c-.44,.25-.84,.57-1.2,.94,.26-.18,.52-.33,.78-.45,.12-.06,.25-.1,.39-.14,0-.03,0-.06,0-.08,0-.14,.06-.25,.15-.32Zm-1.05,2.03c-.5,.4-.96,.87-1.31,1.37-.22,.33-.44,.66-.66,1,.37-.39,.69-.78,1.14-1.08,.01-.04,.03-.07,.05-.11,.24-.39,.49-.81,.78-1.19Z"/></g></g><g><g><path class="cls-4" d="M64.06,22.76c-.28,0-.51-.09-.69-.27-.19-.18-.28-.39-.28-.64v-.39c-.51,.42-1.07,.74-1.69,.96-.62,.23-1.27,.34-1.95,.34-.77,0-1.49-.14-2.17-.43-.68-.28-1.27-.67-1.78-1.15-.51-.48-.91-1.05-1.2-1.69-.3-.64-.44-1.33-.44-2.06s.15-1.42,.44-2.08c.3-.65,.7-1.22,1.2-1.7,.51-.48,1.1-.87,1.78-1.15,.68-.28,1.4-.42,2.17-.42,.68,0,1.33,.11,1.95,.34,.62,.23,1.19,.55,1.69,.96v-.39c0-.25,.09-.46,.28-.64,.19-.18,.42-.27,.69-.27,.26,0,.48,.09,.67,.27s.28,.39,.28,.64v8.86c0,.25-.09,.46-.28,.64-.19,.18-.41,.27-.67,.27Zm-4.62-8.84c-.51,0-.98,.09-1.42,.28-.44,.19-.83,.44-1.16,.76-.33,.32-.6,.69-.79,1.11-.2,.42-.29,.88-.29,1.36s.1,.94,.29,1.36c.19,.42,.46,.79,.79,1.11,.33,.32,.72,.57,1.16,.75,.44,.18,.91,.27,1.42,.27s.98-.09,1.42-.27c.44-.18,.83-.43,1.16-.75,.33-.32,.59-.69,.78-1.11,.19-.42,.28-.87,.28-1.36s-.09-.94-.28-1.36c-.19-.42-.45-.79-.78-1.11-.33-.32-.72-.57-1.16-.76-.44-.19-.91-.28-1.42-.28Z"/><path class="cls-4" d="M86.58,22.76c-.69,0-1.35-.11-1.97-.34-.62-.23-1.19-.55-1.69-.96v.39c0,.25-.09,.46-.28,.64-.19,.18-.41,.27-.67,.27-.27,0-.51-.09-.69-.27-.19-.18-.28-.39-.28-.64l-.09-14.54c-.01-.25,.08-.46,.27-.64,.2-.18,.42-.27,.68-.27,.27,0,.5,.09,.68,.27,.18,.18,.27,.39,.27,.64l.09,6.1c.51-.43,1.07-.76,1.7-.99,.63-.23,1.29-.34,1.99-.34,.77,0,1.49,.14,2.17,.42,.68,.28,1.27,.67,1.78,1.15,.51,.48,.9,1.05,1.19,1.7,.29,.65,.43,1.34,.43,2.08s-.14,1.42-.43,2.06c-.29,.64-.69,1.21-1.19,1.69-.51,.48-1.1,.87-1.78,1.15-.68,.28-1.4,.43-2.17,.43Zm0-8.84c-.51,0-.98,.09-1.42,.28-.44,.19-.83,.44-1.16,.76-.33,.32-.6,.69-.79,1.11-.2,.42-.29,.88-.29,1.36s.1,.94,.29,1.36c.2,.42,.46,.79,.79,1.11s.72,.57,1.16,.75c.44,.18,.91,.27,1.42,.27s.98-.09,1.42-.27c.44-.18,.83-.43,1.16-.75,.33-.32,.59-.69,.78-1.11,.19-.42,.28-.87,.28-1.36s-.09-.94-.28-1.36c-.19-.42-.45-.79-.78-1.11-.33-.32-.72-.57-1.16-.76-.44-.19-.92-.28-1.42-.28Z"/><path class="cls-4" d="M108.45,10.66c-.35,0-.65-.12-.9-.36-.25-.24-.38-.53-.38-.86s.13-.63,.38-.86c.25-.23,.55-.34,.9-.34s.67,.11,.91,.34c.25,.23,.37,.52,.37,.86s-.13,.62-.38,.86c-.25,.24-.55,.36-.9,.36Zm0,12.1c-.26,0-.48-.09-.67-.27-.19-.18-.28-.39-.28-.64V12.98c0-.25,.09-.46,.28-.64,.19-.18,.41-.27,.67-.27s.49,.09,.68,.27,.29,.39,.29,.64v8.86c0,.25-.1,.46-.29,.64-.2,.18-.42,.27-.68,.27Z"/><path class="cls-4" d="M134.96,22.76c-.27,0-.51-.09-.69-.27-.19-.18-.28-.39-.28-.64v-.39c-.51,.42-1.07,.74-1.69,.96-.62,.23-1.27,.34-1.95,.34-.77,0-1.49-.14-2.17-.43-.68-.28-1.27-.67-1.78-1.15-.51-.48-.91-1.05-1.2-1.69-.3-.64-.44-1.33-.44-2.06s.15-1.42,.44-2.08c.3-.65,.7-1.22,1.2-1.7,.51-.48,1.1-.87,1.78-1.15,.68-.28,1.4-.42,2.17-.42,.68,0,1.33,.11,1.95,.34,.62,.23,1.19,.56,1.69,.99V7.3c0-.25,.09-.46,.28-.64,.19-.18,.42-.27,.69-.27s.48,.09,.67,.27c.19,.18,.28,.39,.28,.64v14.54c0,.25-.09,.46-.28,.64-.19,.18-.41,.27-.67,.27Zm-4.62-8.84c-.51,0-.98,.09-1.42,.28-.44,.19-.83,.44-1.16,.76-.33,.32-.6,.69-.79,1.11-.2,.42-.29,.88-.29,1.36s.1,.94,.29,1.36c.2,.42,.46,.79,.79,1.1s.72,.56,1.16,.75c.44,.19,.91,.28,1.42,.28s.96-.09,1.41-.28c.45-.19,.84-.44,1.16-.75,.33-.31,.59-.68,.78-1.1,.2-.42,.29-.87,.29-1.36s-.1-.94-.29-1.36c-.19-.42-.46-.79-.78-1.11-.33-.32-.71-.57-1.16-.76s-.92-.28-1.41-.28Z"/><path class="cls-4" d="M161.13,17.9h-8.22c.06,.43,.19,.83,.4,1.19,.21,.37,.48,.68,.8,.95,.33,.27,.69,.48,1.11,.63,.41,.15,.85,.23,1.31,.23,.27,0,.52-.02,.75-.06,.22-.04,.43-.11,.63-.2s.39-.2,.59-.33,.41-.28,.64-.45c.09-.07,.18-.13,.27-.18,.09-.05,.22-.07,.38-.07,.27,0,.51,.09,.69,.27,.19,.18,.28,.39,.28,.64,0,.15-.03,.28-.09,.37-.06,.1-.12,.19-.2,.27-.23,.25-.5,.47-.81,.67-.31,.2-.64,.37-1,.5-.35,.13-.72,.23-1.08,.3-.37,.07-.72,.1-1.05,.1-.77,0-1.49-.14-2.17-.43-.68-.28-1.27-.67-1.78-1.15-.51-.48-.91-1.05-1.2-1.69-.3-.64-.44-1.33-.44-2.06s.15-1.42,.44-2.08c.3-.65,.7-1.22,1.2-1.7,.51-.48,1.1-.87,1.78-1.15,.68-.28,1.4-.42,2.17-.42s1.43,.12,2.08,.35c.65,.24,1.23,.57,1.74,1.01,.51,.44,.91,.95,1.22,1.56,.3,.6,.48,1.26,.52,1.98,.01,.28-.08,.5-.27,.67-.2,.17-.42,.26-.68,.26Zm-4.6-3.98c-.75,0-1.43,.2-2.04,.59-.61,.39-1.06,.91-1.35,1.55h6.75c-.27-.65-.72-1.17-1.33-1.56-.61-.39-1.29-.58-2.03-.58Z"/></g><g><path class="cls-5" d="M49.38,30.88s-.01,.09-.03,.11l-1.83,4.43c-.05,.13-.15,.19-.29,.19s-.24-.06-.29-.19l-1.55-3.72-1.54,3.72c-.05,.13-.15,.19-.29,.19s-.24-.06-.29-.19l-1.84-4.43s-.02-.08-.02-.11c0-.08,.03-.15,.09-.21,.06-.06,.14-.09,.22-.09,.14,0,.25,.06,.3,.19l1.54,3.91,1.54-3.91c.05-.12,.15-.19,.29-.19s.25,.06,.3,.19l1.54,3.91,1.54-3.91c.05-.12,.15-.19,.29-.19,.09,0,.16,.03,.23,.09,.07,.06,.1,.13,.1,.21Z"/><path class="cls-5" d="M50.85,33.1c0-.35,.07-.67,.21-.98,.14-.31,.33-.58,.56-.8,.24-.23,.52-.41,.84-.54,.32-.13,.66-.2,1.03-.2s.7,.07,1.02,.2c.32,.13,.6,.31,.84,.54,.24,.23,.43,.5,.56,.8,.14,.31,.21,.63,.21,.98s-.07,.67-.21,.98c-.14,.3-.33,.57-.56,.8-.24,.23-.52,.41-.84,.54-.32,.13-.66,.2-1.02,.2s-.7-.07-1.03-.2c-.32-.13-.6-.31-.84-.54-.24-.23-.43-.49-.56-.8-.14-.3-.21-.63-.21-.98Zm.64,0c0,.26,.05,.51,.16,.74,.1,.23,.25,.43,.43,.6,.18,.17,.39,.3,.64,.4,.24,.1,.5,.15,.78,.15s.53-.05,.78-.15,.45-.24,.63-.4c.18-.17,.32-.37,.42-.6,.1-.23,.16-.48,.16-.74s-.05-.51-.16-.74c-.11-.23-.25-.43-.42-.61-.18-.17-.39-.31-.63-.41-.24-.1-.5-.15-.78-.15s-.53,.05-.78,.15c-.24,.1-.45,.24-.64,.41-.18,.17-.32,.38-.43,.61-.1,.23-.16,.48-.16,.74Z"/><path class="cls-5" d="M65.11,35.31c0,.08-.03,.15-.09,.21-.06,.06-.14,.09-.22,.09s-.16-.03-.22-.09c-.06-.06-.09-.13-.09-.21v-2.96c0-.16-.03-.31-.1-.45-.07-.14-.15-.26-.27-.37-.11-.1-.24-.19-.39-.25-.15-.06-.31-.09-.47-.09s-.32,.03-.47,.09c-.15,.06-.28,.15-.38,.25-.11,.1-.2,.23-.26,.37-.06,.14-.1,.29-.1,.45v2.96c0,.08-.03,.15-.09,.21-.06,.06-.14,.09-.22,.09s-.16-.03-.23-.09c-.06-.06-.1-.13-.1-.21v-2.96c0-.16-.03-.31-.1-.45-.06-.14-.15-.26-.26-.37-.11-.1-.24-.19-.39-.25-.15-.06-.31-.09-.47-.09s-.32,.03-.47,.09c-.15,.06-.28,.15-.38,.25-.11,.1-.2,.23-.26,.37-.07,.14-.1,.29-.1,.45,0,.01,0,.03-.01,.05,0,.02-.01,.04-.01,.06v2.85c0,.08-.03,.15-.09,.21-.06,.06-.14,.09-.22,.09-.09,0-.17-.03-.23-.09-.06-.06-.09-.13-.09-.21v-4.49c0-.09,.03-.16,.09-.22,.06-.06,.14-.09,.23-.09,.08,0,.14,.02,.18,.05,.04,.03,.07,.08,.09,.13,.02,.05,.03,.11,.03,.17,0,.06,0,.12,0,.18,.17-.15,.36-.26,.57-.34,.21-.08,.44-.12,.67-.12,.31,0,.6,.07,.87,.21s.49,.33,.67,.57c.17-.24,.39-.43,.66-.57,.27-.14,.56-.21,.87-.21,.25,0,.49,.05,.72,.14s.42,.22,.59,.38c.17,.16,.3,.35,.4,.57,.1,.21,.15,.44,.15,.68v2.96Z"/><path class="cls-5" d="M72.32,32.89c0,.08-.02,.15-.09,.21-.06,.06-.14,.09-.23,.09h-4.3c.01,.26,.08,.49,.18,.72,.11,.22,.25,.41,.43,.58,.18,.16,.39,.29,.62,.38,.23,.09,.49,.14,.75,.14,.15,0,.29-.01,.41-.04,.12-.02,.24-.06,.35-.11,.11-.05,.21-.11,.31-.18,.1-.07,.21-.15,.33-.24,.04-.03,.07-.05,.1-.06,.03-.01,.07-.02,.13-.02,.09,0,.16,.03,.23,.09,.07,.06,.1,.13,.1,.21,0,.05,0,.09-.03,.12-.02,.03-.04,.06-.07,.1-.1,.12-.23,.22-.37,.31s-.31,.17-.47,.23c-.17,.06-.34,.11-.51,.14-.17,.04-.34,.05-.5,.05-.36,0-.7-.07-1.02-.2-.32-.13-.6-.31-.84-.54-.24-.23-.43-.49-.56-.8s-.21-.63-.21-.98,.07-.67,.21-.98,.33-.58,.56-.8c.24-.23,.52-.41,.84-.54,.32-.13,.66-.2,1.02-.2s.67,.06,.98,.17c.31,.11,.58,.27,.82,.47,.24,.2,.43,.44,.57,.72,.14,.28,.22,.58,.24,.91v.03Zm-.71-.31c-.06-.21-.15-.4-.27-.57s-.27-.31-.44-.44c-.17-.12-.36-.21-.56-.28-.2-.07-.42-.1-.64-.1s-.44,.03-.65,.1c-.21,.07-.39,.16-.56,.29-.17,.12-.31,.27-.44,.44-.13,.17-.22,.35-.28,.56h3.83Z"/><path class="cls-5" d="M78.24,35.31c0,.08-.03,.15-.09,.21-.06,.06-.14,.09-.22,.09s-.16-.03-.23-.09c-.06-.06-.1-.13-.1-.21v-2.96c0-.16-.03-.31-.1-.45-.06-.14-.15-.26-.26-.37-.11-.1-.24-.19-.39-.25-.15-.06-.31-.09-.47-.09s-.32,.03-.47,.09c-.15,.06-.28,.15-.38,.25-.11,.1-.2,.23-.26,.37-.07,.14-.1,.29-.1,.45,0,.01,0,.03-.01,.05,0,.02-.01,.04-.01,.06v2.85c0,.08-.03,.15-.09,.21-.06,.06-.14,.09-.22,.09-.09,0-.17-.03-.23-.09-.06-.06-.09-.13-.09-.21v-4.49c0-.09,.03-.16,.09-.22,.06-.06,.14-.09,.23-.09,.08,0,.14,.02,.18,.05,.04,.03,.07,.08,.09,.13,.02,.05,.03,.11,.03,.17,0,.06,0,.12,0,.18,.17-.15,.36-.26,.57-.34,.21-.08,.44-.12,.67-.12,.25,0,.49,.05,.72,.14,.22,.09,.42,.22,.59,.38,.17,.16,.3,.35,.4,.57,.1,.21,.15,.44,.15,.68v2.96Z"/><path class="cls-5" d="M80.92,28.7c0,.21-.05,.41-.15,.6-.1,.18-.24,.34-.42,.47-.08,.05-.15,.07-.21,.07-.09,0-.16-.03-.22-.09-.06-.06-.09-.13-.09-.21,0-.06,.01-.1,.03-.13,.02-.04,.05-.07,.09-.1,.1-.1,.18-.19,.23-.27,.05-.08,.08-.19,.08-.33v-.13c-.1-.03-.18-.09-.24-.17-.06-.08-.09-.17-.09-.26,0-.12,.05-.23,.14-.32,.09-.09,.21-.13,.34-.13,.17,0,.29,.05,.37,.15,.08,.1,.12,.22,.12,.37v.5Z"/><path class="cls-5" d="M85.83,34.2c0,.22-.04,.42-.12,.6-.08,.18-.2,.33-.34,.45-.14,.12-.31,.21-.5,.27-.19,.06-.4,.09-.62,.09-.21,0-.41-.03-.61-.1-.2-.07-.38-.16-.54-.27-.16-.12-.29-.26-.39-.44-.1-.17-.15-.37-.15-.58,0-.08,.03-.15,.09-.21,.06-.06,.14-.09,.22-.09s.16,.03,.23,.09c.06,.06,.1,.13,.1,.21,0,.14,.03,.26,.1,.35,.06,.1,.15,.18,.25,.24,.1,.06,.21,.11,.34,.14,.12,.03,.25,.05,.37,.05,.27,0,.5-.06,.68-.18,.18-.12,.27-.33,.27-.62,0-.22-.06-.39-.19-.51-.13-.12-.28-.22-.47-.3-.18-.08-.39-.14-.61-.2-.22-.06-.42-.13-.61-.23-.18-.09-.34-.22-.47-.38-.13-.16-.19-.38-.19-.66,0-.19,.04-.37,.12-.54,.08-.17,.19-.31,.32-.42,.13-.12,.29-.21,.47-.27,.18-.07,.37-.1,.57-.1s.38,.03,.56,.1c.18,.07,.34,.16,.47,.27,.13,.12,.24,.26,.32,.42,.08,.17,.12,.35,.12,.54,0,.08-.03,.15-.1,.21-.06,.06-.14,.09-.23,.09s-.16-.03-.22-.09c-.06-.06-.09-.13-.09-.21,0-.22-.08-.4-.25-.53s-.36-.2-.59-.2-.42,.07-.59,.2c-.17,.13-.25,.31-.25,.53,0,.17,.06,.3,.19,.39,.13,.09,.28,.18,.47,.25,.18,.07,.39,.14,.61,.21,.22,.07,.42,.16,.61,.27,.18,.11,.34,.26,.47,.45,.13,.18,.19,.42,.19,.71Z"/><path class="cls-5" d="M96.6,35.31c0,.08-.03,.15-.09,.21-.06,.06-.14,.09-.22,.09s-.16-.03-.23-.09c-.07-.06-.1-.13-.1-.21v-2.72c0-.19-.04-.38-.11-.54-.08-.17-.18-.32-.31-.45-.13-.13-.29-.23-.47-.3-.18-.07-.37-.11-.57-.11s-.39,.04-.57,.11c-.18,.07-.33,.17-.46,.3s-.23,.28-.31,.45c-.08,.17-.11,.35-.11,.54,0,.01,0,.03-.01,.05,0,.02-.01,.03-.01,.05v2.62c0,.08-.03,.15-.09,.21-.06,.06-.14,.09-.22,.09s-.16-.03-.23-.09c-.07-.06-.1-.13-.1-.21v-7.27c0-.08,.03-.15,.1-.21,.06-.06,.14-.09,.23-.09s.16,.03,.22,.09c.06,.06,.09,.13,.09,.21v3.13c.2-.19,.42-.33,.68-.44,.26-.1,.52-.16,.8-.16,.29,0,.56,.05,.82,.16,.26,.11,.48,.25,.67,.43,.19,.18,.34,.39,.45,.64,.11,.25,.17,.51,.17,.78v2.72Z"/><path class="cls-5" d="M103.8,32.89c0,.08-.02,.15-.09,.21-.07,.06-.14,.09-.23,.09h-4.3c.01,.26,.08,.49,.18,.72,.11,.22,.25,.41,.43,.58,.18,.16,.39,.29,.62,.38,.24,.09,.49,.14,.75,.14,.15,0,.29-.01,.41-.04,.12-.02,.24-.06,.35-.11,.11-.05,.21-.11,.31-.18,.1-.07,.21-.15,.33-.24,.04-.03,.07-.05,.1-.06,.03-.01,.07-.02,.12-.02,.09,0,.16,.03,.23,.09,.07,.06,.1,.13,.1,.21,0,.05,0,.09-.03,.12-.02,.03-.04,.06-.07,.1-.1,.12-.23,.22-.37,.31-.15,.09-.31,.17-.47,.23-.17,.06-.34,.11-.51,.14-.17,.04-.34,.05-.5,.05-.36,0-.7-.07-1.03-.2-.32-.13-.6-.31-.84-.54-.24-.23-.43-.49-.56-.8-.14-.3-.21-.63-.21-.98s.07-.67,.21-.98c.14-.31,.33-.58,.56-.8,.24-.23,.52-.41,.84-.54,.32-.13,.66-.2,1.03-.2s.67,.06,.98,.17c.31,.11,.58,.27,.82,.47,.24,.2,.43,.44,.58,.72,.14,.28,.22,.58,.24,.91v.03Zm-.7-.31c-.06-.21-.15-.4-.27-.57-.12-.17-.27-.31-.44-.44-.17-.12-.36-.21-.56-.28-.2-.07-.42-.1-.64-.1s-.44,.03-.65,.1c-.21,.07-.39,.16-.56,.29-.17,.12-.31,.27-.44,.44-.13,.17-.22,.35-.28,.56h3.83Z"/><path class="cls-5" d="M110.78,35.31c0,.08-.03,.15-.09,.21-.06,.06-.14,.09-.22,.09-.09,0-.17-.03-.23-.09-.06-.06-.09-.13-.09-.21v-.58c-.25,.28-.55,.5-.89,.65-.34,.15-.71,.23-1.09,.23-.36,0-.7-.07-1.02-.2s-.6-.31-.84-.54-.43-.49-.56-.8c-.14-.3-.21-.63-.21-.98s.07-.67,.21-.98c.14-.31,.33-.58,.56-.8,.24-.23,.52-.41,.84-.54,.32-.13,.66-.2,1.02-.2,.38,0,.75,.08,1.09,.23,.34,.15,.64,.37,.89,.65v-.58c0-.08,.03-.15,.09-.21,.06-.06,.14-.09,.23-.09,.09,0,.16,.03,.22,.09,.06,.06,.09,.13,.09,.21v4.43Zm-.64-2.21c0-.26-.05-.51-.16-.74-.1-.23-.25-.43-.42-.61-.18-.17-.39-.31-.63-.41-.24-.1-.5-.15-.78-.15s-.53,.05-.78,.15c-.24,.1-.45,.24-.63,.41-.18,.17-.32,.38-.43,.61-.11,.23-.16,.48-.16,.74s.05,.51,.16,.74c.1,.23,.25,.43,.43,.6,.18,.17,.39,.3,.63,.4,.24,.1,.5,.15,.78,.15s.53-.05,.78-.15c.24-.1,.45-.24,.63-.4,.18-.17,.32-.37,.42-.6,.1-.23,.16-.48,.16-.74Z"/><path class="cls-5" d="M114.08,35.31c0,.08-.03,.15-.09,.21-.06,.06-.14,.09-.22,.09s-.16-.03-.22-.09c-.06-.06-.09-.13-.09-.21v-7.27c0-.08,.03-.15,.09-.21,.06-.06,.14-.09,.22-.09s.16,.03,.22,.09c.06,.06,.09,.13,.09,.21v7.27Z"/><path class="cls-5" d="M119.45,30.89c0,.08-.03,.15-.1,.21-.06,.06-.14,.09-.23,.09h-1.04v4.12c0,.08-.03,.15-.1,.21-.07,.06-.14,.09-.23,.09s-.16-.03-.22-.09c-.06-.06-.09-.13-.09-.21v-4.12h-1.05c-.09,0-.16-.03-.22-.09-.06-.06-.09-.13-.09-.21,0-.09,.03-.16,.09-.22,.06-.06,.14-.09,.22-.09h1.05v-1.68c0-.08,.03-.15,.09-.21,.06-.06,.14-.09,.22-.09s.16,.03,.23,.09c.06,.06,.1,.13,.1,.21v1.68h1.04c.09,0,.16,.03,.23,.09,.07,.06,.1,.13,.1,.22Z"/><path class="cls-5" d="M125.65,35.31c0,.08-.03,.15-.09,.21-.06,.06-.14,.09-.22,.09s-.16-.03-.23-.09c-.07-.06-.1-.13-.1-.21v-2.72c0-.19-.04-.38-.11-.54-.08-.17-.18-.32-.31-.45-.13-.13-.29-.23-.47-.3-.18-.07-.37-.11-.57-.11s-.39,.04-.57,.11c-.18,.07-.33,.17-.46,.3s-.23,.28-.31,.45c-.08,.17-.11,.35-.11,.54,0,.01,0,.03-.01,.05,0,.02-.01,.03-.01,.05v2.62c0,.08-.03,.15-.09,.21-.06,.06-.14,.09-.22,.09s-.16-.03-.23-.09c-.07-.06-.1-.13-.1-.21v-7.27c0-.08,.03-.15,.1-.21,.06-.06,.14-.09,.23-.09s.16,.03,.22,.09c.06,.06,.09,.13,.09,.21v3.13c.2-.19,.42-.33,.68-.44,.26-.1,.52-.16,.8-.16,.29,0,.56,.05,.82,.16,.26,.11,.48,.25,.67,.43,.19,.18,.34,.39,.45,.64,.11,.25,.17,.51,.17,.78v2.72Z"/><path class="cls-5" d="M135.24,34.2c0,.22-.04,.42-.13,.6-.08,.18-.2,.33-.34,.45-.14,.12-.31,.21-.5,.27-.19,.06-.4,.09-.62,.09-.21,0-.41-.03-.61-.1-.2-.07-.38-.16-.54-.27-.16-.12-.29-.26-.39-.44-.1-.17-.15-.37-.15-.58,0-.08,.03-.15,.09-.21,.06-.06,.14-.09,.22-.09s.16,.03,.23,.09c.07,.06,.1,.13,.1,.21,0,.14,.03,.26,.1,.35,.07,.1,.15,.18,.25,.24,.1,.06,.21,.11,.34,.14,.12,.03,.25,.05,.37,.05,.27,0,.5-.06,.68-.18,.18-.12,.27-.33,.27-.62,0-.22-.06-.39-.19-.51-.13-.12-.28-.22-.47-.3-.18-.08-.39-.14-.61-.2-.22-.06-.42-.13-.61-.23-.18-.09-.34-.22-.47-.38-.13-.16-.19-.38-.19-.66,0-.19,.04-.37,.12-.54,.08-.17,.19-.31,.32-.42,.13-.12,.29-.21,.47-.27,.18-.07,.37-.1,.57-.1s.38,.03,.56,.1c.18,.07,.34,.16,.47,.27,.13,.12,.24,.26,.32,.42,.08,.17,.12,.35,.12,.54,0,.08-.03,.15-.1,.21s-.14,.09-.23,.09-.16-.03-.22-.09c-.06-.06-.09-.13-.09-.21,0-.22-.08-.4-.25-.53-.17-.13-.36-.2-.59-.2s-.42,.07-.59,.2-.25,.31-.25,.53c0,.17,.06,.3,.19,.39,.13,.09,.28,.18,.47,.25,.18,.07,.39,.14,.61,.21,.22,.07,.42,.16,.61,.27,.18,.11,.34,.26,.47,.45,.13,.18,.19,.42,.19,.71Z"/><path class="cls-5" d="M142.22,32.89c0,.08-.02,.15-.09,.21-.07,.06-.14,.09-.23,.09h-4.3c.01,.26,.08,.49,.18,.72,.11,.22,.25,.41,.43,.58,.18,.16,.39,.29,.62,.38,.24,.09,.49,.14,.75,.14,.15,0,.29-.01,.41-.04,.12-.02,.24-.06,.35-.11,.11-.05,.21-.11,.31-.18,.1-.07,.21-.15,.33-.24,.04-.03,.07-.05,.1-.06,.03-.01,.07-.02,.12-.02,.09,0,.16,.03,.23,.09,.07,.06,.1,.13,.1,.21,0,.05,0,.09-.03,.12-.02,.03-.04,.06-.07,.1-.1,.12-.23,.22-.37,.31s-.31,.17-.47,.23c-.17,.06-.34,.11-.51,.14-.17,.04-.34,.05-.5,.05-.36,0-.7-.07-1.03-.2-.32-.13-.6-.31-.84-.54-.24-.23-.43-.49-.56-.8-.14-.3-.21-.63-.21-.98s.07-.67,.21-.98c.14-.31,.33-.58,.56-.8,.24-.23,.52-.41,.84-.54,.32-.13,.66-.2,1.03-.2s.67,.06,.98,.17c.31,.11,.58,.27,.82,.47,.24,.2,.43,.44,.58,.72,.14,.28,.22,.58,.24,.91v.03Zm-.7-.31c-.06-.21-.15-.4-.27-.57-.12-.17-.27-.31-.44-.44-.17-.12-.36-.21-.56-.28-.2-.07-.42-.1-.64-.1s-.44,.03-.65,.1c-.21,.07-.39,.16-.56,.29-.17,.12-.31,.27-.44,.44-.13,.17-.22,.35-.28,.56h3.83Z"/><path class="cls-5" d="M145.05,35.31c0,.06-.03,.12-.08,.19-.06,.08-.14,.11-.24,.11-.09,0-.17-.03-.23-.09-.06-.06-.09-.13-.09-.21v-4.43c0-.08,.03-.15,.09-.21,.06-.06,.14-.09,.23-.09,.09,0,.16,.03,.22,.09,.06,.06,.09,.13,.09,.22v.26c.08-.16,.21-.3,.39-.41,.18-.11,.36-.16,.55-.16,.33,0,.59,.07,.79,.22,.2,.15,.35,.36,.46,.65,.04,.1,.03,.19-.03,.29-.05,.09-.14,.14-.27,.14-.11,0-.19-.04-.24-.11-.05-.08-.11-.16-.16-.25-.05-.09-.13-.17-.22-.24-.09-.07-.23-.1-.41-.08-.12,0-.23,.04-.33,.09-.1,.06-.2,.13-.28,.21-.08,.09-.14,.18-.19,.28-.05,.1-.07,.21-.07,.32v3.21Z"/><path class="cls-5" d="M152.74,30.88s0,.07-.02,.11l-1.81,4.43c-.06,.13-.16,.19-.3,.19-.06,0-.12-.02-.17-.05-.06-.03-.1-.08-.12-.13l-1.81-4.43s-.02-.08-.02-.11c0-.08,.03-.15,.09-.21,.06-.06,.14-.09,.22-.09,.07,0,.13,.02,.18,.05,.06,.03,.1,.08,.12,.13l1.51,3.91,1.52-3.91c.05-.12,.15-.19,.29-.19,.09,0,.16,.03,.23,.09,.07,.06,.1,.13,.1,.21Z"/><path class="cls-5" d="M155.65,29.11c0,.13-.05,.23-.14,.32-.09,.09-.21,.13-.34,.13s-.24-.04-.34-.13c-.09-.09-.14-.2-.14-.32,0-.13,.05-.24,.14-.32,.09-.08,.21-.13,.34-.13,.14,0,.25,.04,.34,.13,.09,.08,.14,.19,.14,.32Zm-.15,6.2c0,.08-.03,.15-.1,.21-.06,.06-.14,.09-.23,.09s-.16-.03-.22-.09c-.06-.06-.09-.13-.09-.21v-4.43c0-.08,.03-.15,.09-.21,.06-.06,.14-.09,.22-.09s.16,.03,.23,.09c.07,.06,.1,.13,.1,.21v4.43Z"/><path class="cls-5" d="M162.43,31.54c0,.08-.03,.15-.1,.21-.06,.06-.14,.09-.23,.09-.05,0-.09,0-.12-.02-.03-.01-.07-.04-.1-.06-.22-.18-.43-.32-.64-.42-.21-.1-.46-.14-.76-.14-.28,0-.53,.05-.78,.15-.24,.1-.45,.24-.64,.41-.18,.17-.32,.38-.43,.61-.1,.23-.16,.48-.16,.74s.05,.51,.16,.74c.1,.23,.25,.43,.43,.6,.18,.17,.39,.3,.64,.4,.24,.1,.5,.15,.78,.15,.3,0,.55-.05,.76-.15,.21-.1,.42-.23,.64-.41,.04-.03,.07-.05,.1-.06,.03-.01,.07-.02,.12-.02,.09,0,.16,.03,.23,.09,.07,.06,.1,.13,.1,.21,0,.05,0,.09-.03,.12-.02,.03-.04,.06-.07,.1-.22,.24-.51,.42-.85,.55-.34,.13-.68,.19-1,.19-.36,0-.7-.07-1.03-.2-.32-.13-.6-.31-.84-.54-.24-.23-.43-.49-.56-.8-.14-.3-.21-.63-.21-.98s.07-.67,.21-.98c.14-.31,.33-.58,.56-.8,.24-.23,.52-.41,.84-.54,.32-.13,.66-.2,1.03-.2,.33,0,.66,.06,1,.19,.34,.12,.63,.31,.85,.55,.07,.08,.1,.15,.1,.22Z"/><path class="cls-5" d="M169.29,32.89c0,.08-.02,.15-.09,.21-.07,.06-.14,.09-.23,.09h-4.3c.01,.26,.08,.49,.18,.72,.11,.22,.25,.41,.43,.58,.18,.16,.39,.29,.62,.38,.24,.09,.49,.14,.75,.14,.15,0,.29-.01,.41-.04,.12-.02,.24-.06,.35-.11,.11-.05,.21-.11,.31-.18,.1-.07,.21-.15,.33-.24,.04-.03,.07-.05,.1-.06,.03-.01,.07-.02,.12-.02,.09,0,.16,.03,.23,.09,.07,.06,.1,.13,.1,.21,0,.05,0,.09-.03,.12-.02,.03-.04,.06-.07,.1-.1,.12-.23,.22-.37,.31-.15,.09-.31,.17-.47,.23-.17,.06-.34,.11-.51,.14-.17,.04-.34,.05-.5,.05-.36,0-.7-.07-1.03-.2s-.6-.31-.84-.54c-.24-.23-.43-.49-.56-.8-.14-.3-.21-.63-.21-.98s.07-.67,.21-.98c.14-.31,.33-.58,.56-.8,.24-.23,.52-.41,.84-.54,.32-.13,.66-.2,1.03-.2s.67,.06,.98,.17c.31,.11,.58,.27,.82,.47,.24,.2,.43,.44,.58,.72,.14,.28,.22,.58,.24,.91v.03Zm-.7-.31c-.06-.21-.15-.4-.27-.57-.12-.17-.27-.31-.44-.44-.17-.12-.36-.21-.56-.28-.2-.07-.42-.1-.64-.1s-.44,.03-.65,.1c-.21,.07-.39,.16-.56,.29-.17,.12-.31,.27-.44,.44-.13,.17-.22,.35-.28,.56h3.83Z"/><path class="cls-5" d="M174.29,34.2c0,.22-.04,.42-.12,.6-.08,.18-.2,.33-.34,.45-.14,.12-.31,.21-.5,.27-.19,.06-.4,.09-.62,.09-.21,0-.41-.03-.61-.1-.2-.07-.38-.16-.54-.27-.16-.12-.29-.26-.39-.44-.1-.17-.15-.37-.15-.58,0-.08,.03-.15,.09-.21,.06-.06,.14-.09,.22-.09s.16,.03,.23,.09c.06,.06,.1,.13,.1,.21,0,.14,.03,.26,.1,.35,.06,.1,.15,.18,.25,.24,.1,.06,.21,.11,.34,.14,.12,.03,.25,.05,.37,.05,.27,0,.5-.06,.68-.18,.18-.12,.27-.33,.27-.62,0-.22-.06-.39-.19-.51-.13-.12-.28-.22-.47-.3-.18-.08-.39-.14-.61-.2-.22-.06-.42-.13-.61-.23-.18-.09-.34-.22-.47-.38-.13-.16-.19-.38-.19-.66,0-.19,.04-.37,.12-.54,.08-.17,.19-.31,.32-.42,.13-.12,.29-.21,.47-.27,.18-.07,.37-.1,.57-.1s.38,.03,.56,.1c.18,.07,.34,.16,.47,.27,.13,.12,.24,.26,.32,.42,.08,.17,.12,.35,.12,.54,0,.08-.03,.15-.1,.21-.06,.06-.14,.09-.23,.09s-.16-.03-.22-.09c-.06-.06-.09-.13-.09-.21,0-.22-.08-.4-.25-.53-.17-.13-.36-.2-.59-.2s-.42,.07-.59,.2c-.17,.13-.25,.31-.25,.53,0,.17,.06,.3,.19,.39,.13,.09,.28,.18,.47,.25,.18,.07,.39,.14,.61,.21,.22,.07,.42,.16,.61,.27,.18,.11,.34,.26,.47,.45,.13,.18,.19,.42,.19,.71Z"/></g></g></svg>